<svg xmlns="http://www.w3.org/2000/svg" xmlns:xlink="http://www.w3.org/1999/xlink" id="Layer_1" x="0px" y="0px" viewBox="0 0 738 274" style="enable-background:new 0 0 738 274;" xml:space="preserve"><style type="text/css">	.st0{fill:#B68A35;}	.st1{fill:url(#SVGID_1_);}	.st2{fill:#FFFFFF;}	.st3{fill:url(#SVGID_00000020371199085533094320000005455728672118586006_);}	.st4{fill:url(#SVGID_00000016052920808497194260000002559134895850667917_);}	.st5{fill:url(#SVGID_00000098205500588469239880000012934963389438948513_);}	.st6{fill:url(#SVGID_00000108283388925756081910000006002583180376404097_);}	.st7{fill:url(#SVGID_00000124862990904114635030000009490175645207183746_);}	.st8{fill:url(#SVGID_00000114075223209378977660000014660210973475042485_);}	.st9{fill:url(#SVGID_00000114065517041779384400000003621726683903567764_);}	.st10{fill:url(#SVGID_00000039814077096410777740000006876663275515905712_);}	.st11{fill:url(#SVGID_00000099634862202219841370000016147397172247179415_);}	.st12{fill:url(#SVGID_00000139986943378785039680000012619506717539361937_);}	.st13{fill:url(#SVGID_00000001631311554581058540000016186595658614102176_);}	.st14{fill:url(#SVGID_00000074443599491423825200000000856524248697880749_);}	.st15{fill-rule:evenodd;clip-rule:evenodd;}	.st16{fill-rule:evenodd;clip-rule:evenodd;fill:#FFFFFF;}	.st17{fill:none;}	.st18{fill:#E1E0E0;}	.st19{fill:url(#SVGID_00000085241844150213549130000011164456122933247892_);}	.st20{fill:#008B39;}	.st21{fill:url(#SVGID_00000083788240585891113550000007478578723324684985_);}	.st22{fill:#D70926;}</style><g>	<path class="st0" d="M543.7,138.6c0.6,0.4,0.9,0.7,0.9,0.8c1.1,4.4,1.8,7.7,2.1,9.9c0.4,1.6,0.5,2.8,0.5,3.5c0,0.5-0.1,1-0.4,1.5  h-49.3c-0.5,0-1.7-0.6-2-0.7c-0.4-0.1-0.6-0.3-0.6-0.5c-0.5-3.5-1.2-9.9-2-19l-0.5-5c-1.3,1.3-2.4,2.5-3.2,3.6  c-0.5,0.6-0.8,1-0.8,1.2l2.5,26.1h59.4c0.8,0,1.7,0.4,2.8,1.3l2.3,2c0.4-0.5,0.8-1.3,1.3-2.7c0.5-1.3,0.8-2.2,0.8-2.8  c0-0.8-0.9-1.6-2.8-2.7c-2-1.2-3.2-2-3.5-2.5c-0.5-0.9-0.8-2.4-0.8-4.4c-0.1-3-0.1-4.7-0.2-5.1c0.6-0.5,1.3-1.3,2-2.5  c0.8-1.5,1.3-2.3,1.6-2.7c-2.4-1.1-4.3-2.5-5.8-4c-0.4-0.9-0.5-1.7-0.6-2.3h-0.5c-0.4,0.2-1.1,1.3-2.1,3.1c-1,1.8-1.5,2.8-1.5,3  C542.8,137.8,543.1,138.1,543.7,138.6z M538.1,92.5l-1.4-18.2c-0.5,0.6-1.3,1.8-2.3,3.5c-1.2,1.9-1.8,3.1-1.8,3.5l2.6,21.8  C537.1,100.1,538.1,96.6,538.1,92.5z M563.7,138.2l2.6,21.8c1.9-2.9,2.9-6.3,2.9-10.5l-1.4-18.2c-0.5,0.6-1.3,1.8-2.3,3.5  C564.3,136.6,563.7,137.8,563.7,138.2z M424.8,112l3.9,2.3c1.4-1.5,2.5-2.8,3.2-3.9l-4.3-2.5c-0.5,0.4-1.3,1.2-2.6,2.5  c-1.6-0.8-2.9-1.6-3.7-2.5c-1.4,1.5-2.4,2.7-3,3.7c0.2,0.2,0.9,0.7,2.1,1.4c1.2,0.8,1.8,1.1,2,1.1C422.2,114.2,423,113.5,424.8,112  z M398.9,85c0,0.3,0.5,1.3,0.6,1.7c-1.3,0.9-2.8,1.8-4.4,2.7c-2.3,1.3-3.6,2.5-3.9,3.5c-1.4,4.3-2.1,6.3-2.1,6.1v0.8l8.5,1.7  c0.8-0.1,1.5-0.8,2.1-2.1c0.6-1.3,1.3-2.2,1.8-2.4c0.5,1.9,0.8,3.4,1,4.3c0.1,0.5,0.5,0.9,1.1,1.4c0.2,0.2,0.5,0.4,0.7,0.4h20.8  l2-3.5c0,0.5,0.4,1.2,1.2,2.1c0.8,0.9,1.6,1.3,2.2,1.3h22.9c0.6-4.5,1-7.3,1-8.4c0-2.7-1.3-5.6-3.7-8.7l-2.9,4.7  c1.8,2.5,2.9,4.8,3.5,6.7c0-0.1-4.4-0.1-13.4,0h-2.8c-0.9,0-1.4,0-1.4,0c-2.3-0.4-3.5-1.4-3.5-3c0-0.4,0.1-1.2,0.3-2.3  c0.2-1.1,0.3-2,0.3-2.7c0-0.6-0.1-1.1-0.1-1.5c-2,2-3.2,3.3-3.5,3.9c-0.2,1.1-0.2,1.9-0.1,2.5c-0.2,1.8-0.4,2.9-0.6,3.1h-19.5  c-1.3,0-2-0.3-2.1-0.9c-1.3-7.3-2.3-12.8-2.8-16.4C399.9,83.4,398.9,85.1,398.9,85z M400.3,88.9c0.6,2.7,1,4.5,1,5.3v1.1h-3.2  c-0.5,0-2-0.4-4.3-1.1l2.9-1.3c1.3-0.8,2.1-1.8,2.5-3C399.4,89.4,399.8,89.1,400.3,88.9z M446.3,108.9c-0.4,0-1,0.5-1.9,1.5  c-0.9,1.1-1.4,1.7-1.5,2c2.3,1.8,3.7,2.7,4.1,2.7c0.2,0,0.8-0.4,1.8-1.1c1-0.7,1.5-1.3,1.5-1.7c0-0.2-0.6-0.8-1.9-1.9  C447.2,109.4,446.5,108.9,446.3,108.9z M552.3,101.2c1.2,0.9,2.2,1.4,3,1.5c0.2,0,0.5,0.2,0.8,0.2h21.7c2-4,3-7.4,3-10.2  c0-1-0.4-2.1-1-3.5c-0.6-1.3-1.3-2.4-2-3l-2.9,5.1c1.6,2.6,2.4,4.2,2.4,4.9c0,0.2-0.1,0.5-0.4,0.8h-18.7c-0.6,0-1.5-0.3-2.6-0.9  c-1.1-0.6-1.8-1.2-2-1.7c-0.2-0.5-0.4-1.3-0.4-2.2c0-0.1,0.1-0.9,0.2-2.3c0.2-1.5,0.3-2.5,0.3-3l-0.3-0.2c-0.7,0.4-1.4,1.8-2.2,4.4  c-0.6,2.3-1,4.2-1,5.7c0,0.8,0,1.3,0.1,1.4C550.5,99.2,551.2,100.2,552.3,101.2z M609.4,150c0.5,0.3,1.4,1.1,2.9,2.5  c1.8,1.6,2.6,2.8,2.6,3.5c0,1.8-1.7,4.1-5.1,6.8c-3.2,2.6-5.5,3.9-7,3.9c-0.7,0-1.9-0.3-3.7-0.8c-1.8-0.6-2.7-0.8-2.8-0.8  c-0.2,0-0.4,0.1-0.6,0.2v0.6c0.4,0.5,2.2,1.4,5.4,2.6c3.2,1.3,5.3,1.9,6.5,1.9c2.9,0,5.4-2,7.4-6.2c1.7-3.5,2.5-6.5,2.5-9.2  c0-2-0.5-3.9-1.6-5.9c-1.2-2.1-2.8-3.7-4.7-4.9L609.4,150z M452.5,109.1v0.5c0.6,0.7,2.3,1.7,5.1,2.9c2.8,1.3,4.9,1.9,6.1,1.9  c2.3,0,4.7-1.8,7-5.3c1.9-2.7,3-5.1,3.3-7.1c0.6,0.6,1.1,1,1.5,1h19.8l1.9-3.2l1.8,3.2h20.9c0.3,0,0.8-0.3,1-0.3l1.3-7l-1.2-9.7  c0-0.3,0.1-0.5,0.1-0.6l2.7-3.5c0.6-0.8,1.1-1.3,1.3-1.8c-1.3-0.8-2.6-1.6-3.9-2.4c-1.8-1.1-2.8-1.8-3-2.1  c-0.4-0.5-0.5-1.3-0.5-2.3c-1.3,1.8-2.6,4.1-3.9,6.8c1.3,1.1,2,1.6,2,1.6c0.9,4.2,1.6,7.3,1.9,9.4c0.4,2.3,0.6,3.9,0.6,4.7  c0,0.4-0.1,1-0.2,1.7H502v-0.5l1.2-2c0.5-0.9,0.8-1.6,0.8-2c0-1.3-0.8-2.5-2.3-3.7c-1.5-1.2-3-1.8-4.7-1.8c-0.8,0-1.9,0.2-3.1,0.6  l-2.6,0.8l-2.9,5.5c0.6-0.1,1.2-0.1,1.7-0.1c2.1,0,3.7,1.1,4.9,3.2h-16.3c-0.1,0-0.1,0-0.1,0c-2.7-1.1-5.5-3.5-8.4-7.2l-3,5  c2.3,2.6,3.5,4.4,3.5,5.4c0,1.4-1.6,3.5-4.8,6.1c-3.2,2.6-5.7,3.9-7.6,3.9c-0.8,0-1.8-0.3-3.2-0.8c-1.4-0.6-2.2-0.8-2.3-0.8  C452.8,108.9,452.6,108.9,452.5,109.1z M642.3,103c0.5-0.4,1-1.3,1.5-2.5c0.4-1.1,1-1.7,1.8-2l10.7,3.9c1.9-3,2.9-4.6,3.1-4.9  c0.4-0.6,0.5-1.1,0.5-1.5c0-0.6-0.1-1.2-0.2-1.7c-1.1-3.8-2-6.7-2.7-8.6c-0.1-0.1-0.2-0.3-0.4-0.5c-1.1-0.1-3.2,0.6-6.4,2.1  c-1.3,0.6-2.7,1.8-3.9,3.4c-1.1,1.5-1.8,2.9-2.3,4.3l-0.9,2.3h-17.2c-0.5,0-1.7-0.6-2-0.7c-0.4-0.1-0.6-0.3-0.6-0.5  c-0.5-3.5-1.2-9.9-2-19l-0.5-5c-1.3,1.3-2.4,2.5-3.2,3.6c-0.5,0.6-0.8,1-0.8,1.2L619,103H642.3z M650.5,91.2  c0.6-0.2,1.1-0.4,1.6-0.4c0.8,0,1.4,0.6,1.8,1.6c0.1,0.2,0.4,1.1,0.7,2.6l-6.3-2.5C648.3,92.3,649,91.7,650.5,91.2z M565.5,81.2  l4,2.1c1.1-0.9,2.1-2,3-3.4l-4.2-2.1l-1.6,1.2c-0.6,0.5-1,0.8-1.1,0.8c-0.1,0-0.7-0.4-1.8-1c-1.1-0.6-1.6-1-1.8-1  c-0.4,0-1.4,1.1-3.2,3.2c1.5,0.9,3,1.6,4.4,2.2C564.1,82.2,564.8,81.6,565.5,81.2z M627.2,131.3c-0.5,0.6-1.3,1.8-2.3,3.5  c-1.2,1.9-1.8,3.1-1.8,3.5l2.6,21.8c1.9-2.9,2.9-6.3,2.9-10.5L627.2,131.3z M584.1,137c1.2,0.6,2,1,2.4,1c0.4,0,1.1-0.7,2.3-2.1  l4.3,2.3c0.8-0.4,1.9-1.5,3.2-3.5c-2.6-1.6-4-2.3-4.4-2.3c-0.1,0-0.6,0.4-1.4,1.1c-0.8,0.7-1.2,1.1-1.3,1.1c-0.2,0-1.6-0.7-3.9-2.1  c-1.1,0.9-2.1,2-3.2,3.3C582.3,135.9,582.9,136.3,584.1,137z M592.5,92.5l-1.4-18.2c-0.5,0.6-1.3,1.8-2.3,3.5  c-1.2,1.9-1.8,3.1-1.8,3.5l2.6,21.8C591.5,100.1,592.5,96.6,592.5,92.5z M639.6,140c0.3,0,0.8-0.6,1.6-1.7c0.8-1.1,1.3-1.8,1.3-2  c0-0.4-0.5-0.8-1.6-1.6c-1.1-0.8-1.7-1.1-2-1.1c-0.4,0-0.9,0.5-1.7,1.5c-0.8,0.9-1.1,1.6-1.1,1.9c0,0.2,0.5,0.8,1.6,1.7  C638.8,139.6,639.4,140,639.6,140z M591.1,108.2v0.6c0.4,0.5,2.2,1.4,5.4,2.6c3.2,1.3,5.3,1.9,6.5,1.9c2.9,0,5.4-2,7.4-6.2  c1.7-3.5,2.5-6.5,2.5-9.2c0-2-0.5-3.9-1.6-5.9c-1.2-2.1-2.8-3.7-4.7-4.9l-2,5.7c0.5,0.3,1.4,1.1,2.9,2.5c1.8,1.6,2.6,2.8,2.6,3.5  c0,1.8-1.7,4.1-5.1,6.8c-3.2,2.6-5.5,3.9-7,3.9c-0.7,0-1.9-0.3-3.7-0.8c-1.8-0.6-2.7-0.8-2.8-0.8  C591.4,108,591.2,108.1,591.1,108.2z M587.6,160c1.8,0,4-0.8,6.7-2.3c0.5-0.2,0.8-0.7,1.1-1.4l0.5-1.4c0.8-2.9,1.2-4.4,1.2-4.7  c0-1.6-0.6-3.1-1.9-4.3l-5.1-4.2c-1.9,2.2-3.6,4.7-5.2,7.3c-2.2,3.5-3.3,6.2-3.3,8.1C581.6,159,583.6,160,587.6,160z M587.1,149.7  c0.6-0.8,1.1-1.6,1.8-2.3c2.6,1.9,4.4,3.8,5.3,5.9v0.5c-2.3,0.4-4.1,0.6-5.4,0.6c-1.9,0-2.9-0.7-2.9-2  C585.8,151.8,586.3,150.9,587.1,149.7z M627.5,166.7c0.2,0.1,0.8,0.4,1.8,0.8c3.8,1.7,6.6,2.5,8.4,2.5c2.6,0,4.9-1.8,7-5.5  c1.9-3.3,2.8-6.6,2.8-9.7c0-4.4-2-8-6-10.9l-2,5.7c0.9,0.6,2,1.6,3.2,2.7c1.5,1.5,2.2,2.6,2.2,3.3c0,1.5-1.6,3.6-4.6,6.3  c-3,2.7-5.6,4.2-7.6,4.2c-1,0-2.3-0.3-3.7-0.8c-1.5-0.5-2.3-0.8-2.3-0.8h-0.7c0,0.2-0.2,0.5-0.2,0.6  C626.1,165.7,626.7,166.2,627.5,166.7z M393.6,77.8c2.3,1.5,3.7,2.2,4.1,2.2c0.1,0,0.6-0.4,1.3-1.3c1.1-1.2,1.8-1.8,1.8-2l-4.3-2.5  c-1.8,1.5-2.6,2.3-2.5,2.3c-0.5,0-1.7-0.8-3.7-2.3l-2.9,3.4c2.2,1.5,3.5,2.2,3.9,2.2C391.6,79.8,392.3,79.1,393.6,77.8z   M690.3,75.5c-1.1-0.8-1.8-1.4-1.9-1.6c-0.4-0.9-0.5-1.6-0.5-2l-4.2,6.6c0.9,1.1,1.4,2.4,1.4,3.8c0,2.7-0.5,4.9-1.5,6.5  c-1.1-2-2.9-4.4-5.4-7c-2.5-2.6-4.7-4.5-6.7-5.7c0.1,0.8,0,1.3-0.1,1.6h-4.2c-0.5,1.9-0.7,3.1-0.7,3.5c0,1.5,0.4,2.5,1,2.8l6.7,3.9  L675,86c0.9,0.6,2.1,1.6,3.5,3c1.4,1.5,2.3,2.6,2.6,3.4c-3.4,3-5.6,4.6-6.8,4.6c-1.5,0-2.3-1.5-2.8-2.1c-0.5,1.3-0.8,2.7-0.8,4.5  c0,2,0.4,3.2,1.1,3.5h15c0.3-1.6,0.4-3.2,0.4-4.7c0-2-0.5-3.9-1.5-5.6c-0.4-0.6-0.5-0.9-0.5-1s0.4-0.7,1-1.8  c0.6-1.1,1.1-1.9,1.3-2.4c0.5-1.5,0.9-3.2,1.3-5.2c0.4,0.4,0.8,0.5,1.2,0.5c0.2,0,0.4,0,0.4-0.1c2-3,3.1-4.6,3.1-4.9  C693.7,77.4,692.5,76.7,690.3,75.5z M679.1,97.4c0.9-0.6,2-1.7,3.3-3.2c0.6,1.1,1.1,2.1,1.6,3.2C682.4,97.6,680.8,97.6,679.1,97.4z   M703.8,74.3c-0.5,0.6-1.3,1.8-2.3,3.5c-1.2,1.9-1.8,3.1-1.8,3.5l2.6,21.8c1.9-2.9,2.9-6.3,2.9-10.5L703.8,74.3z M667.8,149.2  c-0.4-0.9-0.8-1.8-1.5-2.9c-1.1-1.5-2-2.2-3-2.2c-1.5,0-3.1,1.3-4.9,4c-1.5,2.3-2.3,3.9-2.5,4.9v1.7c0,1.7,0.2,2.9,0.6,3.7  c0.6,1,1.8,1.5,3.4,1.5c2.9,0,4.4-1.1,5.8-4.8h0.1c0.2,0.6,0.4,1.3,0.4,1.9c0,2.5-2,5.1-5.9,8.1c-3.6,2.7-6.3,4.1-8.2,4.1  c-0.1,0-1.1-0.1-2.8-0.5c-1.7-0.4-2.6-0.5-2.7-0.5c-0.6,0-1,0.3-1,0.8c0.6,0.5,2.4,1.2,5.4,2c3,0.8,5.3,1.3,6.8,1.3  c3.2,0,5.9-2.2,8.1-6.6c1.9-3.8,2.8-7.5,2.8-11.3c0-1.1-0.1-2.2-0.5-3.5L667.8,149.2z M661.6,154.2c-0.5,0-1.1-0.1-1.8-0.4  c-1.1-0.4-1.6-0.7-1.6-1.2c0-0.6,0.5-1.2,1.4-1.7c0.8-0.4,1.4-0.6,1.8-0.6c0.6,0,1.3,0.2,1.8,0.7c0.6,0.6,1,1.4,1,2.4  C663.2,154,662.4,154.2,661.6,154.2z M669.5,111.6c-0.5-0.1-0.7-0.4-0.7-0.7c0-0.1,0.1-0.2,0.1-0.3c0.8-0.8,1.5-1.1,2.3-1.1  c1.1,0,1.7,1,1.7,1c0.6-0.8,1-1.3,1-1.6c0,0.1-0.1-0.1-0.2-0.5c-0.1-0.2-0.4-0.4-0.6-0.6c-0.8-0.1-1.1-0.2-0.8-0.2  c-1,0-1.9,0.4-2.8,1.3c-1.5,1.3-2.1,2.7-2,4.2c1.3,0.5,2.3,0.8,3,0.9c-1.5,1.2-2.2,2-2.2,2.3v0.5c2.8-2,5.1-2.9,6.8-2.8  c0.5-0.9,0.8-1.6,1.1-2c-0.8,0.1-1.7,0.1-2.7,0.1C671.9,112,670.7,111.9,669.5,111.6z M414.3,169l3.9,2.3c1.4-1.5,2.5-2.8,3.2-3.9  l-4.3-2.5c-0.5,0.4-1.3,1.2-2.6,2.5c-1.6-0.8-2.9-1.6-3.7-2.5c-1.4,1.5-2.4,2.7-3,3.7c0.2,0.2,0.9,0.7,2.1,1.4  c1.2,0.8,1.8,1.1,2,1.1C411.7,171.2,412.5,170.5,414.3,169z M246.5,142c0,0.3,0.5,1.3,0.6,1.7c-1.3,0.9-2.8,1.8-4.4,2.7  c-2.3,1.3-3.6,2.5-3.9,3.5c-1.4,4.3-2.1,6.3-2.1,6.1v0.8l8.5,1.7c0.8-0.1,1.5-0.8,2.1-2.1c0.6-1.3,1.3-2.2,1.8-2.4  c0.5,1.9,0.8,3.4,1,4.3c0.1,0.5,0.5,0.9,1.1,1.4c0.2,0.2,0.5,0.4,0.7,0.4h162.7l2-3.5c0,0.5,0.4,1.2,1.2,2.1  c0.8,0.9,1.6,1.3,2.2,1.3h57.4c0.3,0,0.8-0.3,1-0.3l1.3-7l-1.2-9.7c0-0.3,0.1-0.5,0.1-0.6l2.7-3.5c0.6-0.8,1.1-1.3,1.3-1.8  c-1.3-0.8-2.6-1.6-3.9-2.4c-1.8-1.1-2.8-1.8-3-2.1c-0.4-0.5-0.5-1.3-0.5-2.3c-1.3,1.8-2.6,4.1-3.9,6.8c1.3,1.1,2,1.6,2,1.6  c0.9,4.2,1.6,7.3,1.9,9.4c0.4,2.3,0.6,3.9,0.6,4.7c0,0.4-0.1,1-0.2,1.7h-51.2c-0.9,0-1.4,0-1.4,0c-2.3-0.4-3.5-1.4-3.5-3  c0-0.4,0.1-1.2,0.3-2.3c0.2-1.1,0.3-2,0.3-2.7c0-0.6-0.1-1.1-0.1-1.5c-2,2-3.2,3.3-3.5,3.9c-0.2,1.1-0.2,1.9-0.1,2.5  c-0.2,1.8-0.4,2.9-0.6,3.1H254.5c-1.3,0-2-0.3-2.1-0.9c-1.3-7.3-2.3-12.8-2.8-16.4C247.5,140.4,246.5,142.1,246.5,142z   M247.9,145.9c0.6,2.8,1,4.5,1,5.3v1.1h-3.2c-0.5,0-2-0.4-4.3-1.1l2.9-1.3c1.3-0.8,2.1-1.8,2.5-3  C247,146.4,247.3,146.1,247.9,145.9z M255.2,103H268c0.4-0.4,0.8-1.1,1.3-2.3c0.4-0.9,0.8-1.5,1.3-1.6l1.6,3.8h24  c0.4,0,1.1-0.2,1.9-0.6c2.7-1.5,4.7-2.5,6.1-3.3c0.6-0.4,1.1-0.5,1.4-0.5h7.5l0.6,4.4h23.9l2-3.4c0.4,1,0.7,1.6,1,1.9  c0.8,1,1.7,1.5,2.5,1.5h11.8c0.8,0,1.7,0.4,2.8,1.3l2.3,2c0.4-0.5,0.8-1.3,1.3-2.7c0.5-1.3,0.8-2.2,0.8-2.8c0-0.8-0.9-1.6-2.8-2.7  c-2-1.2-3.2-2-3.5-2.5c-0.5-0.9-0.8-2.4-0.8-4.4c-0.1-3-0.1-4.7-0.2-5.1c0.6-0.5,1.3-1.3,2-2.5c0.8-1.5,1.3-2.3,1.6-2.7  c-2.4-1.1-4.3-2.5-5.8-4c-0.4-0.9-0.5-1.7-0.6-2.3h-0.5c-0.4,0.2-1.1,1.3-2.1,3.1c-1,1.8-1.5,2.8-1.5,3c0,0.1,0.3,0.4,0.8,0.9  c0.6,0.4,0.9,0.7,0.9,0.8c1.1,4.4,1.8,7.7,2.1,9.9c0.4,1.6,0.5,2.8,0.5,3.5c0,0.5-0.1,1-0.4,1.5h-6.5c-0.8,0-2.3-1.1-2.5-2.2  c-0.1-0.1-0.1-0.4-0.1-0.7l0.6-6.6l-2,1.9c-0.8,0.8-1.4,1.6-1.6,2.3c-0.2,0.4-0.3,1.3-0.3,2.5c0.1,1.3-0.1,2.2-0.4,2.7h-19.4  c-1.5,0-2.3,0-2.3,0c0.6-2.3,1.1-3.9,1.4-4.5c-5.9-0.4-11.6-2-17.1-5c-0.6-0.2-1.1-0.4-1.5-0.5c-0.5-0.1-1.2-0.1-2.1-0.1h-1.4  c-1.3,0.2-2.9,1.3-4.5,3.5c-0.6,0.8-1.2,2-1.8,3.5l1.9-1.1c0.8-0.4,1.8-0.6,2.8-0.6c0.5,0,1.6,0.3,3,0.8c3.2,1.1,4.9,1.7,5.3,1.8  c-1.3,0.8-2.8,1.4-4.6,1.9c-0.8,0.2-1.2,0.3-1.4,0.3h-20.7c-1.3,0-2-0.5-2.3-1.5L270.7,82l-2.9,5.6c0.4,1.3,0.8,2.6,1.1,3.9  c0.8,2.5,1.1,4.2,1.1,4.9c0,0.2-0.1,0.4-0.3,0.7h-11.9c-0.8,0-1.3-0.7-1-4.6c-0.1-0.2-0.3-0.3-0.4-0.4c-0.8,1-1.3,2.3-1.6,3.7  c-0.5,2.4-0.8,4.3-0.8,5.7C254.4,102.5,254.7,103,255.2,103z M374,92.5l-1.4-18.2c-0.5,0.6-1.3,1.8-2.3,3.5  c-1.2,1.9-1.8,3.1-1.8,3.5l2.6,21.8C373,100.1,374,96.6,374,92.5z M333.8,82.7c-0.1,0,0.7-0.8,2.5-2.3c2.5,1.5,3.9,2.3,4.4,2.3  c-0.2,0,0-0.1,0.6-0.4c1.3-1.5,2.3-2.5,2.7-3.3l-4.6-2.5l-1.7,1.4c-0.6,0.6-1.1,0.9-1.2,0.9c-0.3,0-0.8-0.2-2.5-1.3  c-0.8-0.6-1.3-0.8-1.4-0.8c-0.1,0-0.6,0.5-1.6,1.4c-0.9,0.9-1.5,1.6-1.8,2.1c1.3,1.1,2.5,1.8,3.5,2.1  C333.4,82.5,333.8,82.7,333.8,82.7z M236.5,80c1.2,0.6,2,1,2.4,1c0.4,0,1.1-0.7,2.3-2.1l4.3,2.3c0.8-0.4,1.9-1.5,3.2-3.5  c-2.6-1.6-4-2.3-4.4-2.3c-0.1,0-0.6,0.4-1.4,1.1c-0.8,0.7-1.2,1.1-1.3,1.1c-0.2,0-1.6-0.7-3.9-2.1c-1.1,0.9-2.1,2-3.2,3.3  C234.7,78.9,235.4,79.3,236.5,80z M240,103c1.8,0,4-0.8,6.7-2.3c0.5-0.2,0.8-0.7,1.1-1.4l0.5-1.4c0.8-2.9,1.2-4.4,1.2-4.7  c0-1.6-0.6-3.1-1.9-4.3l-5.1-4.2c-1.9,2.2-3.6,4.7-5.2,7.3c-2.2,3.5-3.3,6.2-3.3,8.1C234,102,236,103,240,103z M239.5,92.7  c0.6-0.8,1.1-1.6,1.8-2.3c2.6,1.9,4.4,3.8,5.3,5.9v0.5c-2.3,0.4-4.1,0.6-5.4,0.6c-1.9,0-2.9-0.7-2.9-2  C238.2,94.8,238.7,93.9,239.5,92.7z M241.2,134.8c2.3,1.5,3.7,2.2,4.1,2.2c0.1,0,0.6-0.4,1.3-1.3c1.1-1.2,1.8-1.8,1.8-2l-4.3-2.5  c-1.8,1.5-2.6,2.3-2.5,2.3c-0.5,0-1.7-0.8-3.7-2.3l-2.9,3.4c2.2,1.5,3.5,2.2,3.9,2.2C239.2,136.8,239.9,136.1,241.2,134.8z"></path>	<g>		<g>			<g>				<path d="M156.2,198.6c-0.1,0.1-0.1,0.1-0.2,0.1c-15.8,9.5-33.7,16.2-52.5,16.7c-0.9,0.7-3,2.3-3,2.3s-2.2-1.6-3-2.3     c-18.8-0.5-36.8-7.1-52.5-16.7c-0.1-0.1-0.1-0.1-0.2-0.1c-0.2,0.1-16.5,10.3-16.5,10.3v21.9c21.1,12.5,44.3,20,69.3,20.5     c0.8,0.8,3,2.5,3,2.5s2.2-1.7,3-2.5c25-0.5,48.3-8,69.3-20.5v-21.9C172.8,208.9,156.4,198.7,156.2,198.6z"></path>			</g>			<linearGradient id="SVGID_1_" gradientUnits="userSpaceOnUse" x1="31.3057" y1="226.1211" x2="169.5703" y2="226.1211">				<stop offset="0" style="stop-color:#D70926"></stop>				<stop offset="0.1383" style="stop-color:#D71327"></stop>				<stop offset="0.2493" style="stop-color:#D9242D"></stop>				<stop offset="0.351" style="stop-color:#DC3737"></stop>				<stop offset="0.4463" style="stop-color:#E05047"></stop>				<stop offset="0.5169" style="stop-color:#E46759"></stop>				<stop offset="0.5848" style="stop-color:#DF4F47"></stop>				<stop offset="0.6715" style="stop-color:#DC3737"></stop>				<stop offset="0.7646" style="stop-color:#D9232D"></stop>				<stop offset="0.8676" style="stop-color:#D71227"></stop>				<stop offset="1" style="stop-color:#D70926"></stop>			</linearGradient>			<path class="st1" d="M156.9,202.3c-15.7,9-34.6,16-52.9,16.5c-0.5,0.4-3.5,2.7-3.5,2.7s-3.1-2.3-3.5-2.7    c-18.3-0.6-37.2-7.5-52.9-16.5l-12.7,8.7l0,18.3c20.2,11.4,42.8,18.1,66.1,18.6l0.4,0c0,0,1.8,1.5,2.6,2.2v0c0,0,0,0,0,0v0v0    c0.9-0.7,2.6-2.2,2.6-2.2l0.4,0c23.3-0.5,45.9-7.1,66.1-18.6l0-18.3L156.9,202.3z"></path>			<path class="st2" d="M77,37c-4.2,2.3-4.4,5.1-3.5,7c0.4-0.3,2.1-0.3,4.2-1.3c0.9-0.2,5.5,0.6,8.6,3.2c0.3-1.2,0.5-2.4,0.5-3.7    c0-4.1-1.8-7.6-4.6-9.8c-0.3,0.2-0.6,0.3-1,0.5C77.8,34.9,78.2,36.4,77,37z"></path>			<path class="st0" d="M184.7,125.7c-0.1-1-0.3-2-0.4-3c-1-8.5-0.7-16.7-0.5-25.2c0.2-7.9-1-15.2-5-22.1    c-3.5-6.1-9.7-14.1-17.2-15.1c-6.9-0.9-11.5,5.2-17.8,6.9c-7,1.9-11.1,1.7-17.6-3.1c-2.7-2.6-12.2-22.4-14.8-26.5    c-2.9-4.6-6.8-7.3-12.3-8.6c-6-1.4-16.7,1.1-19,4c-1.6,2-2.4,1.7-2.4,3.1c-0.1,2.4,4.8,7.4,8.8,10.1c-3.1,0.2,1.6,7.2,0.9,8.9    c-0.7,1.7-0.6,10.6-10.8,12.6c-8.1,2.1-17.6,0.2-20-0.5c-6.4-1.7-11.5-7.5-18.4-6.6c-7.5,1-13.2,8.7-16.7,14.8    c-3.9,6.9-5.1,14.2-4.9,22.1c0.2,8.5,0.4,16.8-0.5,25.2c-0.1,1-0.2,2-0.4,3c-0.1-0.3,35.2-18.7,36.3-19.8    c1.6-1.6,2.3-2.6,4.1-4.5l0.1,47.4c0,0,5.6-7.3,7.1-5.8c0.9,0.9-2.8,25.7-6,37.4c0.8,0,5-2.5,5.6-2.2c0.7,0.4,0.4,6.2,0.6,6.8    c0.4-0.7,1.9-3.4,3.1-3.1c1.2,0.3,1.3,3.5,1.3,4.4c1-2.2,1.9-5.2,3-7.4c1.1-2.1,3.3-6.1,4.8-8.4c1.2-1.8,6.1-7.1,9-8    c3.8-1.2,13.5-0.2,15.2,4.9c0,0,0.6,0,0.7,0c2.7-6.9,12.3-7.1,17.1-3.4c2.4,1.9,8.6,10.2,9.7,12.3c1.1,2.1,4.1,7.9,5.2,10.1    c0-0.9-0.1-4.2,1.1-4.5c1.2-0.3,2.7,2.4,3.1,3.1c0.3-0.5,0-6.4,0.6-6.8c0.6-0.3,4.8,2.2,5.6,2.2c-3.2-10.2-5.6-30.7-5.7-32.1    c-0.1-1.1-0.5-9.8,0.1-13.3c0.3,6.1,1,7.4,6.7,13.8c0.1-1.6,0.5-43.1,0.2-47.4c1.8,1.8,2.3,3.2,4.1,4.5    C154.2,109.9,184.8,125.4,184.7,125.7z"></path>							<linearGradient id="SVGID_00000080194881447649161690000001330954336126628227_" gradientUnits="userSpaceOnUse" x1="160.8991" y1="156.297" x2="167.749" y2="140.0091">				<stop offset="0" style="stop-color:#FFFFFF"></stop>				<stop offset="1" style="stop-color:#B68A35"></stop>			</linearGradient>			<path style="fill:url(#SVGID_00000080194881447649161690000001330954336126628227_);" d="M144.6,139.6c0.1-0.2,0.2-0.3,0.3-0.4    c0.7,0.6,1.4,1.3,2,2c2.9,2.9,4.8,6.5,7.1,9.8c2.5,3.5,5.8,6.2,8.9,9.2c2.6,2.4,15.2,11.7,21.3,15.5c0.9-4.9-0.3-14.7-0.2-19.6    c0.1-4.4,0-7.5-3.9-10.2c-5.1-3.6-11-5.9-16.4-8.9c-4.7-2.7-9.1-6.3-13.8-9.1c-3.5-2.1-4.8-4.5-5.4-7.3    C143.9,126.8,144.1,133.2,144.6,139.6z"></path>							<linearGradient id="SVGID_00000029003599709722276510000008230160013652416670_" gradientUnits="userSpaceOnUse" x1="-4629.981" y1="156.2967" x2="-4623.1313" y2="140.0094" gradientTransform="matrix(-1 0 0 1 -4590.1787 0)">				<stop offset="0" style="stop-color:#FFFFFF"></stop>				<stop offset="1" style="stop-color:#B68A35"></stop>			</linearGradient>			<path style="fill:url(#SVGID_00000029003599709722276510000008230160013652416670_);" d="M56.1,139.6c-0.1-0.2-0.2-0.3-0.3-0.4    c-0.7,0.6-1.4,1.3-2,2c-2.9,2.9-4.7,6.5-7.1,9.8c-2.5,3.5-5.8,6.2-8.9,9.2c-2.6,2.4-15.1,11.7-21.3,15.5    c-0.9-4.9,0.3-14.7,0.2-19.6c-0.1-4.4,0-7.5,4-10.2c5.1-3.6,11-5.9,16.4-8.9c4.7-2.7,9.1-6.3,13.8-9.1c3.5-2.1,4.8-4.5,5.4-7.3    C56.8,126.8,56.5,133.2,56.1,139.6z"></path>			<path class="st2" d="M118.5,163.7c-3.6-3.6-12.4-4.4-18.2,2.8c-5.8-7.2-14.6-6.4-18.2-2.8c-0.7,3.6-10.2,35-11.4,38.3    c4.8,1.4,4.7,0.6,7.9-0.2c0.6,8.9,6,3.6,7.3,2.4c4.2,7.6,8.1,2.9,10.3-0.5c0,2.8,1.2,4.2,4.2,6.4c3-2.2,4.2-3.6,4.2-6.4    c2.2,3.4,6.1,8.1,10.3,0.5c1.2,1.2,6.6,6.5,7.2-2.4c3.2,0.9,3,1.6,7.9,0.2C128.7,198.7,119.2,167.3,118.5,163.7z"></path>			<path class="st2" d="M144.6,122.9c3.3,9.6,33.8,22.9,39.9,26.7c0-6.3-0.6-10.3-0.5-15.3c0.1-4.4,0-7.5-3.9-10.3    c-5.1-3.5-11-5.9-16.4-8.9c-4.7-2.7-9.1-6.3-13.8-9.1c-3.5-2.1-4.8-4.5-5.4-7.3C143.9,105,144.5,123,144.6,122.9z"></path>			<path class="st2" d="M144.6,156.6c0,4.5,3.2,8,6.5,10.8c0.1,2.6,1.6,9.2,7,11.3c0,3.7,3.1,8.8,8.6,11.5c0,4.7,5.8,8.8,8.8,9.5    c-2.1,14.9,6.8,19.4,9,20.8c0-6.3-0.6-32.1-0.5-37c0.1-4.5-0.1-7.4-3.9-10.3c-15.6-11.6-29.8-27.9-35.8-34.9    C143.6,144.5,144.5,156.7,144.6,156.6z"></path>			<path class="st2" d="M56.1,122.9c-3.3,9.6-33.8,22.9-39.9,26.7c0-6.3,0.6-10.3,0.5-15.3c-0.1-4.4,0-7.5,4-10.3    c5.1-3.5,11-5.9,16.4-8.9c4.7-2.7,9.1-6.3,13.8-9.1c3.5-2.1,4.8-4.5,5.4-7.3C56.8,105,56.2,123,56.1,122.9z"></path>			<path class="st2" d="M56.1,156.6c0,4.5-3.1,8-6.5,10.8c-0.1,2.6-1.6,9.2-7,11.3c0,3.7-3.1,8.8-8.6,11.5c0,4.7-5.8,8.8-8.8,9.5    c2.1,14.9-6.8,19.4-9,20.8c0-6.3,0.6-32.1,0.5-37c-0.1-4.5,0.1-7.4,4-10.3c15.6-11.6,29.8-27.9,35.8-34.9    C57.1,144.5,56.2,156.7,56.1,156.6z"></path>							<linearGradient id="SVGID_00000074424151972086528490000000135102668212537264_" gradientUnits="userSpaceOnUse" x1="100.3467" y1="205.1657" x2="100.3467" y2="159.543">				<stop offset="0" style="stop-color:#FFFFFF"></stop>				<stop offset="0.1601" style="stop-color:#FBFBFB"></stop>				<stop offset="0.3645" style="stop-color:#EEEEEE"></stop>				<stop offset="0.5931" style="stop-color:#D9D9D9"></stop>				<stop offset="0.8373" style="stop-color:#BBBABA"></stop>				<stop offset="1" style="stop-color:#A4A2A2"></stop>			</linearGradient>			<path style="fill:url(#SVGID_00000074424151972086528490000000135102668212537264_);" d="M118.5,163.7    c-3.6-3.6-12.4-4.4-18.2,2.8c-5.8-7.2-14.6-6.4-18.2-2.8c-0.7,3.6-10.2,35-11.4,38.3c4.8,1.4,4.7,0.6,7.9-0.2    c0.6,8.9,6,3.6,7.3,2.4c4.2,7.6,8.1,2.9,10.3-0.5c0,2.8,1.2,4.2,4.2,6.4c3-2.2,4.2-3.6,4.2-6.4c2.2,3.4,6.1,8.1,10.3,0.5    c1.2,1.2,6.6,6.5,7.2-2.4c3.2,0.9,3,1.6,7.9,0.2C128.7,198.7,119.2,167.3,118.5,163.7z"></path>							<linearGradient id="SVGID_00000159439856399572188030000003241031461208093072_" gradientUnits="userSpaceOnUse" x1="159.3614" y1="134.8142" x2="167.0776" y2="118.928">				<stop offset="0" style="stop-color:#FFFFFF"></stop>				<stop offset="0.1601" style="stop-color:#FBFBFB"></stop>				<stop offset="0.3645" style="stop-color:#EEEEEE"></stop>				<stop offset="0.5931" style="stop-color:#D9D9D9"></stop>				<stop offset="0.8373" style="stop-color:#BBBABA"></stop>				<stop offset="1" style="stop-color:#A4A2A2"></stop>			</linearGradient>			<path style="fill:url(#SVGID_00000159439856399572188030000003241031461208093072_);" d="M144.6,122.9    c3.3,9.6,33.8,22.9,39.9,26.7c0-6.3-0.6-10.3-0.5-15.3c0.1-4.4,0-7.5-3.9-10.3c-5.1-3.5-11-5.9-16.4-8.9    c-4.7-2.7-9.1-6.3-13.8-9.1c-3.5-2.1-4.8-4.5-5.4-7.3C143.9,105,144.5,123,144.6,122.9z"></path>							<linearGradient id="SVGID_00000070077786270235266000000000030605903642139802_" gradientUnits="userSpaceOnUse" x1="164.6366" y1="179.0007" x2="173.0078" y2="169.2597">				<stop offset="0" style="stop-color:#FFFFFF"></stop>				<stop offset="0.1601" style="stop-color:#FBFBFB"></stop>				<stop offset="0.3645" style="stop-color:#EEEEEE"></stop>				<stop offset="0.5931" style="stop-color:#D9D9D9"></stop>				<stop offset="0.8373" style="stop-color:#BBBABA"></stop>				<stop offset="1" style="stop-color:#A4A2A2"></stop>			</linearGradient>			<path style="fill:url(#SVGID_00000070077786270235266000000000030605903642139802_);" d="M144.6,156.6c0,4.5,3.2,8,6.5,10.8    c0.1,2.6,1.6,9.2,7,11.3c0,3.7,3.1,8.8,8.6,11.5c0,4.7,5.8,8.8,8.8,9.5c-2.1,14.9,6.8,19.4,9,20.8c0-6.3-0.6-32.1-0.5-37    c0.1-4.5-0.1-7.4-3.9-10.3c-15.6-11.6-29.8-27.9-35.8-34.9C143.6,144.5,144.5,156.7,144.6,156.6z"></path>							<linearGradient id="SVGID_00000061433575129132652190000001756953028915898292_" gradientUnits="userSpaceOnUse" x1="682.0872" y1="134.8127" x2="689.8022" y2="118.9287" gradientTransform="matrix(-1 0 0 1 723.4238 0)">				<stop offset="0" style="stop-color:#FFFFFF"></stop>				<stop offset="0.1601" style="stop-color:#FBFBFB"></stop>				<stop offset="0.3645" style="stop-color:#EEEEEE"></stop>				<stop offset="0.5931" style="stop-color:#D9D9D9"></stop>				<stop offset="0.8373" style="stop-color:#BBBABA"></stop>				<stop offset="1" style="stop-color:#A4A2A2"></stop>			</linearGradient>			<path style="fill:url(#SVGID_00000061433575129132652190000001756953028915898292_);" d="M56.1,122.9    c-3.3,9.6-33.8,22.9-39.9,26.7c0-6.3,0.6-10.3,0.5-15.3c-0.1-4.4,0-7.5,4-10.3c5.1-3.5,11-5.9,16.4-8.9c4.7-2.7,9.1-6.3,13.8-9.1    c3.5-2.1,4.8-4.5,5.4-7.3C56.8,105,56.2,123,56.1,122.9z"></path>							<linearGradient id="SVGID_00000049203602305858263930000012310855673605894315_" gradientUnits="userSpaceOnUse" x1="687.3672" y1="179.0003" x2="695.7386" y2="169.2593" gradientTransform="matrix(-1 0 0 1 723.4238 0)">				<stop offset="0" style="stop-color:#FFFFFF"></stop>				<stop offset="0.1601" style="stop-color:#FBFBFB"></stop>				<stop offset="0.3645" style="stop-color:#EEEEEE"></stop>				<stop offset="0.5931" style="stop-color:#D9D9D9"></stop>				<stop offset="0.8373" style="stop-color:#BBBABA"></stop>				<stop offset="1" style="stop-color:#A4A2A2"></stop>			</linearGradient>			<path style="fill:url(#SVGID_00000049203602305858263930000012310855673605894315_);" d="M56.1,156.6c0,4.5-3.1,8-6.5,10.8    c-0.1,2.6-1.6,9.2-7,11.3c0,3.7-3.1,8.8-8.6,11.5c0,4.7-5.8,8.8-8.9,9.5c2.1,14.9-6.8,19.4-9,20.8c0-6.3,0.6-32.1,0.5-37    c-0.1-4.5,0.1-7.5,4-10.3c21.6-15.4,29.8-27.9,35.8-34.9C57.1,144.5,56.2,156.7,56.1,156.6z"></path>							<linearGradient id="SVGID_00000000212416690133792040000005549911584491533708_" gradientUnits="userSpaceOnUse" x1="49.8769" y1="173.4559" x2="75.8279" y2="147.2791">				<stop offset="0" style="stop-color:#FFFFFF"></stop>				<stop offset="0.2976" style="stop-color:#E6D7BB"></stop>				<stop offset="0.6347" style="stop-color:#CCAE73"></stop>				<stop offset="0.8777" style="stop-color:#BC9446"></stop>				<stop offset="1" style="stop-color:#B68A35"></stop>			</linearGradient>			<path style="fill:url(#SVGID_00000000212416690133792040000005549911584491533708_);" d="M63.9,185.4c0-1.4,0.7-5.4-0.9-6.6    c-1-0.8-3.6,1.4-5.7,2.7c3.7-11.6,12.4-46.4,11-56.7c10.6,5.6,16.3,9.1,22.8,13.8c6.5,4.7,7.2,18.4,3,16.8    c-9.3-3.6-21.4,8.8-25.5,29.2C67.5,182.1,66.7,180.2,63.9,185.4z"></path>							<linearGradient id="SVGID_00000101083621388042551700000004820917202167418513_" gradientUnits="userSpaceOnUse" x1="149.0057" y1="175.3527" x2="125.1986" y2="147.6039">				<stop offset="0" style="stop-color:#FFFFFF"></stop>				<stop offset="0.2976" style="stop-color:#E6D7BB"></stop>				<stop offset="0.6347" style="stop-color:#CCAE73"></stop>				<stop offset="0.8777" style="stop-color:#BC9446"></stop>				<stop offset="1" style="stop-color:#B68A35"></stop>			</linearGradient>			<path style="fill:url(#SVGID_00000101083621388042551700000004820917202167418513_);" d="M136.8,185.4c0-1.4-0.7-5.4,0.9-6.6    c1-0.8,3.6,1.4,5.7,2.7c-3.7-11.6-12.4-46.4-11-56.7c-10.6,5.6-16.3,9.1-22.8,13.8c-6.5,4.7-7.2,18.4-3,16.8    c9.3-3.6,21.4,8.8,25.5,29.2C133.2,182.1,134,180.2,136.8,185.4z"></path>							<linearGradient id="SVGID_00000065785176592666216920000011798293519432297137_" gradientUnits="userSpaceOnUse" x1="9.6021" y1="65.4767" x2="43.3167" y2="89.5585">				<stop offset="0" style="stop-color:#FFFFFF"></stop>				<stop offset="0.1028" style="stop-color:#FBF9F4"></stop>				<stop offset="0.2824" style="stop-color:#F1E8D7"></stop>				<stop offset="0.5174" style="stop-color:#E0CDA9"></stop>				<stop offset="0.7955" style="stop-color:#C9A869"></stop>				<stop offset="1" style="stop-color:#B68A35"></stop>			</linearGradient>			<path style="fill:url(#SVGID_00000065785176592666216920000011798293519432297137_);" d="M82.3,66.6    c-20.7,14.9-39.9-7.1-46.5-0.9C31.8,69.5,20,82.6,20,88.2c0,5.7,0.7,32.6-1.2,34.5c5.6,0,33.9-17.8,35.6-19.4    c5.6-5.6,7.4-2.7,14.5-2.7c2.5-1.8,5.5-3,8.4-4.7C87.6,89.6,82.5,77,82.3,66.6z"></path>							<linearGradient id="SVGID_00000057862141148609556410000018050845652316079007_" gradientUnits="userSpaceOnUse" x1="141.864" y1="56.6353" x2="125.9062" y2="86.8055">				<stop offset="0" style="stop-color:#FFFFFF"></stop>				<stop offset="0.1048" style="stop-color:#F2EADB"></stop>				<stop offset="0.2681" style="stop-color:#E0CDA9"></stop>				<stop offset="0.4298" style="stop-color:#D1B57F"></stop>				<stop offset="0.5864" style="stop-color:#C5A25F"></stop>				<stop offset="0.7366" style="stop-color:#BD9548"></stop>				<stop offset="0.8776" style="stop-color:#B88D3A"></stop>				<stop offset="1" style="stop-color:#B68A35"></stop>			</linearGradient>			<path style="fill:url(#SVGID_00000057862141148609556410000018050845652316079007_);" d="M180.3,87.2c-1.9-5.4-14.1-22-19.4-22    c-6.6,0-17.4,10.8-30.2,5.8c-15.4-6.1-13.3-29.1-30.6-37.2c5.7,1.6,11.3,4.7,9.6,3.7c-8.3-14.9-27.8-8.8-32-2.3    c-0.6,2.6,4.1,7.3,8.2,10.5c3.7,5.7,4.1,6.2,1.1,16.1c-2.9,9.7,20,6.7,26.4,14.4c6.9,8.4,14.8,14.9,25.4,17.4    c0.4,0,0.7,0.1,1,0.2c2.1,5.7,18.6,21.5,42.3,29.2C178.8,118.6,182.1,92.6,180.3,87.2z"></path>			<g>				<path class="st2" d="M45.2,208.5c0.6,0.9,1.4,1.1,2.6,1.1c0.4,0,0.9-0.1,1.4,0c0.4,0.1,0.9,1.6,1.5,1.7c0.6,0.1,2.2,0,2.8,0     c1,0.1,1.9,1.3,3,1.3c0.9,0,1.6-0.8,1.8-1.6c0.3-1.1-0.2-4.6,0.9-5.5c0.5,0.4,1.8,1.4,2.4,1.7c0.6,0.2,2.1,0.9,2.6,1     c0.2,0.1-3-5.2-3.1-6.3c-0.4-3.6,2.8-8.4,3.8-10.5c0.4-1,1.5-4.6,1.9-5.6c0.4-1,0.8-3.5-0.2-2.8c-3.6,2.5-2.7-3.6-3.8-3.3     c-2.8,0.6-3.4,5.1-4.1,7.3c-0.5,1.8-4.5,11.2-5.2,11.4c-0.7-0.4-1.9,0-2.9,1.6c-1.1-1.2-2.2-3-3.9-2.9c-2.2,0.2-1.3,3.4-1.1,4.8     c0.1,0.9-0.8,4.3-0.7,5.1c0.1,0.4,0.2,1,0.3,1.4L45.2,208.5z"></path>			</g>			<g>				<path class="st2" d="M155.8,208.4c-0.6,0.9-2.1,1.5-3.3,1.5c-0.4,0-1.5,0.5-1.9,0.9c-0.4,0.4-1.1,0.3-1.7,0.4     c-0.6,0.1-1,0.2-1.6,0.3c-1,0.1-1.9,1.1-3,1.2c-0.9,0-1.7-0.8-1.9-1.7c-0.3-1.1-0.9-4.8-1.5-4.5c-0.6,0.3-3.1,1.3-4.5,1.8     c-0.3,0.1,2.8-5.4,3.2-6.4c0.4-1.1,0.6-1.8-0.1-3.4c-0.1-0.3-2.4-4.6-3.3-6.7c-0.4-1-1.8-5.1-2.2-6.1c-0.4-1-0.8-3.5,0.2-2.8     c3.6,2.5,2.7-3.6,3.9-3.3c2.7,0.6,3.4,5.1,4.1,7.3c0.5,1.8,1.5,3.7,2.1,5.4c0.6,1.7,2.3,4.4,2.3,7c0,0,0.5-0.6,1.1-0.7     c1.2-0.1,1.9-0.2,2.2,1.4c1-1.6,2.3-3.1,3.9-2.9c2.2,0.2,1.5,3.4,1.3,4.7c-0.1,0.9,0,1.4,0.3,2.3     C156.7,207.3,155.8,208.4,155.8,208.4z"></path>			</g>							<linearGradient id="SVGID_00000047764082778366963920000016448775624548616341_" gradientUnits="userSpaceOnUse" x1="89.8118" y1="42.4263" x2="88.1496" y2="34.8379">				<stop offset="0" style="stop-color:#FFFFFF"></stop>				<stop offset="1" style="stop-color:#000000"></stop>			</linearGradient>			<path style="fill:url(#SVGID_00000047764082778366963920000016448775624548616341_);" d="M91.9,36.2c0,1.7-1.6,3.1-3.5,3.1    c-1.9,0-3.5-1.4-3.5-3.1c0-1.7,1.6-3.1,3.5-3.1C90.4,33.1,91.9,34.4,91.9,36.2z"></path>			<g>				<path d="M78.1,39.2c0.1,0,0.2,0,0.3,0c0,0,0,0,0,0c0-0.5-0.5-0.9-1.1-0.9c-0.6,0-1.1,0.4-1.1,0.9c0,0.5,0.4,0.8,1,0.9     c-0.1-0.1-0.1-0.2-0.1-0.2C77.1,39.5,77.5,39.2,78.1,39.2z"></path>			</g>			<path class="st15" d="M85.6,36.8c1,3.4,6.3,1.6,4.7-2.2c2.1-0.8,3.7-0.9,5.4-1.1c-4.4-0.7-9.5-1.2-12.7,0.2    c-1.6,0.7-1.1,1.7-0.9,2.1c0.3-0.8,1.7-0.9,2.7-0.6c-0.8,6.4,7.5,5.7,7.1,0.4C91.3,40,85.8,40,85.6,36.8z"></path>			<path class="st16" d="M89.8,35.3c-0.4-0.4-2-0.7-2.7,0c0-0.7,0.6-1.3,1.4-1.3C89.2,34,89.8,34.6,89.8,35.3z"></path>			<path d="M185.5,151.5c0.8,0.3,1.5,0.6,2.1,0.8c-2.3-3.5-2.1-9-2.1-10.3v-13.3c0.8,0.3,1.5,0.6,2.1,0.8c-2.3-3.5-2.1-9-2.1-10.3    v-31c0-8.6-13.1-29.3-24.2-29.6c-7.9-0.2-17.1,10.9-28.4,8c-3.6-0.9-6.5-4.8-8.9-9.6c-4.2-8.6-8.2-20.1-18.5-26.8    c-11.3-7.4-24.4,0.9-25.9,2.2c-1.3,1.2-3.3,4.7-4.4,5.3c-3.5,1.9-4.1,5-4.1,6.1c0,1.2,0.3,4,2.4,5.7c-0.3-1.4-0.4-2.2-0.1-2.9    c1.4,0.2,4.5,0.9,6.5,0.1c1,1,3.4,2.9,4.4,4.8c1.4,2.7,1.4,3.1,1.4,4.2c0,2.7-1.3,6.7-5.2,9.3c-4.1,2.9-13.9,4.6-26,0.4    c-6.6-2.3-9.3-6.8-15.2-6.7c-11.1,0.3-24.2,21-24.2,29.6v31c0,1.3,0.2,6.9-2.1,10.3c0.6-0.2,1.3-0.5,2.1-0.8V142    c0,1.3,0.2,6.9-2.1,10.3c0.6-0.2,1.3-0.5,2.1-0.8v17c0,1.3,0.2,6.9-2.1,10.3c0.6-0.2,1.3-0.5,2.1-0.8v34.4c0,1,0.1,4.4-0.8,7.5    c-0.3,1,0.4,2.3,1.5,1.8c4.4-1.8,10.9-5.2,10.9-14.9v-5.4c3.2-1.4,7-3.9,8.2-9.9c3.6-1.8,7.6-4.9,8.5-11.2    c3.7-2.2,7.4-5.9,7.4-13.1c3.2-2.4,5.1-5.3,5.5-7.5c0.3-1.5,0.5-5.1,0.5-9.2c2.3-1.7,4-3.6,5-5.4c-0.4,8.9-2.2,21-6.4,37.6    c0.7,0,1.7-0.2,2.8-0.4c-0.6,3.4-3.4,11.4-5.3,15c-0.3,0-0.5,0-0.8,0c-0.6,0.1-1.1,0.7-1.4,1.5c-0.9-1.3-1.9-3.4-4.5-2.6    c-2.5,0.8-2,3.9-1.5,5.3c0.9,2.7-1.1,3.6-0.7,5.9c0.2,1.6,1.2,2.7,2.3,3.2c0.3,0.7,0.9,1.2,1.6,1.6c0.8,0.3,0.7-0.4,0.7-1.4    c0.2,0,0.3-0.1,0.5-0.2c0.2,0.7,0.7,1.3,1.3,1.6c0.3,0.6,0.8,1.1,1.8,1.7c1,0.5,0.3-0.6,0.1-1.6c0.4-0.1,0.7-0.2,1.1-0.5    c0.1,0.3,0.3,0.6,0.6,0.8c0.1,0.1,0.2,0.1,0.3,0.2c0.2,1,1,1.6,2,2.2c0.7,0.2,0.4-0.6,0.4-1.4c1,0,1.9-0.5,2.3-2.2    c0.6-2.3-0.7-2.1,0.7-4.8c0.3,0,2.3,0.9,2.7,1c-1.9-0.8-3-5.4-3.4-4.1c-1.7,3-0.2,8.6-2.1,8.7c-5.4,0.4-1.4-6.4-1.2-8.1    c0.3-2.2,0-5.3,2.1-4.7c1.9,0.6,4.3,6.7,5.5,8.6c0.2,0.3,2.9,1.9,3,1.2c-2.5-2.5-4-6.4-4.2-7.7c-0.4-1.8-0.2-2.6,0.3-4    c0.5-1.3,3.6-6.7,4.8-9.3c0.3,1.1,0.7,2,0.9,2.8c0.4-5.6,6.7-16.3,12.2-22.6c-2,6.4-6.5,22-7.8,26.4c-1,3.6-3.4,7.3-4,7.8    c2.1,0.8,5.9,1.4,8.6,0.3c-0.4,1.4-0.4,2.7,0.8,3.9c1.5,1.5,5.6,2.5,7.6-0.9c1.6,5.8,7.8,5.5,10.3,1.5c1.1,3.3,3.3,3.8,4.5,5    c1.3-1.3,3.5-1.7,4.5-5c2.4,4,8.7,4.3,10.3-1.5c2,3.5,6.2,2.4,7.6,0.9c1.2-1.2,1.2-2.5,0.8-3.9c2.7,1.1,6.5,0.5,8.6-0.3    c-0.6-0.6-3-4.3-4-7.8c-1.2-4.3-5.7-20-7.8-26.4c5.5,6.3,11.8,17,12.2,22.6c0.2-0.8,0.5-1.8,0.9-2.8c1.3,2.6,4.3,8,4.8,9.3    c0.5,1.3,0.7,2.2,0.3,4c-0.3,1.3-1.4,5.2-3.9,7.7c0.1,0.7,2.4-0.6,2.5-0.8c1.2-1.9,3.7-8.3,5.6-8.9c2.1-0.7,1.9,2.5,2.1,4.7    c0.2,1.7,4.2,8.5-1.2,8.1c-1.9-0.1-0.4-5.7-2.1-8.7c-0.3-1.4-1.4,3.5-3.4,4.3c0.4-0.1,2.3-1.1,2.6-1.2c1.3,2.7,0.2,2.5,0.8,4.8    c0.4,1.6,1.3,2.2,2.3,2.2c-0.1,0.8-0.3,1.6,0.4,1.4c1.1-0.6,1.8-1.2,2-2.2c0.1-0.1,0.2-0.1,0.3-0.2c0.3-0.2,0.5-0.4,0.6-0.8    c0.4,0.2,0.7,0.4,1.1,0.5c-0.2,1-0.9,2,0.1,1.6c1-0.7,1.5-1.2,1.8-1.7c0.6-0.3,1.1-0.8,1.3-1.6c0.2,0.1,0.3,0.1,0.5,0.2    c0,1-0.1,1.7,0.7,1.4c0.8-0.3,1.3-0.9,1.6-1.5c1.1-0.5,2.1-1.6,2.3-3.2c0.3-2.2-1.6-3.1-0.7-5.9c0.4-1.4,1-4.5-1.6-5.3    c-2.5-0.8-3.6,1.3-4.5,2.6c-0.3-0.8-0.8-1.4-1.4-1.5c-0.3-0.1-0.6-0.1-0.8,0c-1.9-3.6-4.8-11.6-5.3-15c1,0.2,2,0.4,2.8,0.4    c-4.2-16.6-6-28.7-6.4-37.6c1,1.8,2.6,3.7,4.9,5.4c0.1,4.1,0.3,7.7,0.5,9.2c0.4,2.2,2.3,5.1,5.5,7.5c0,7.2,3.7,10.9,7.4,13.1    c0.9,6.3,4.9,9.4,8.5,11.2c1.2,6,5,8.5,8.2,9.9v5.4c0,9.5,6.3,13,10.7,14.8c1.1,0.5,2.1-0.4,1.8-1.2c-1.1-3.2-1-7-1-8v-34.3    c0.8,0.3,1.5,0.5,2.1,0.7c-2.3-3.5-2.1-9-2.1-10.3V151.5z M80.7,45L80.7,45c-0.8,0.2-4.8,0.9-5.3,0.4c0.9-0.5,1.5-0.7,3.2-1.8    c1.2,0.1,2.4,0.8,4.3,2C81.8,45.1,81.7,44.8,80.7,45z M23.8,183.2v9.7c0,1.2-0.1,4.8-0.1,8.9l0,0v6.5c0,4.1-3.9,7.7-6.8,8.9    c0.6-0.7,1.2-2.7,1.2-5.6v-34.7c1.8-0.9,3.7-2.1,5.2-3.9c0.2-0.1,0.4-0.1,0.6-0.2C23.8,178.2,23.8,182.4,23.8,183.2z M23.8,153.6    c0,1.6-0.1,9.7-0.1,10.7c0,4.2-3.9,7.7-6.8,9c0.6-0.7,1.2-2.7,1.2-5.7v-17.3c1.5-0.8,3.1-1.8,4.5-3.2c0.4-0.2,0.9-0.3,1.4-0.5    C23.9,148.8,23.8,151.8,23.8,153.6z M16.9,146.6c0.6-0.7,1.2-2.7,1.2-5.7v-13.6c1.5-0.8,3.1-1.8,4.5-3.1c0.4-0.2,0.9-0.3,1.4-0.5    c-0.1,1.1-0.1,2.3-0.1,3.7v8.3C23.8,141.9,20.2,145.2,16.9,146.6z M26.7,122.6c1.7-0.8,3.5-2,5-3.6c0.3-0.1,0.6-0.2,1-0.4    c-0.1,1.1-0.1,2.3-0.1,3.8v8.5c0,5.8-3.4,9.1-6.5,10.6c0.5-1.5,0.8-3.2,0.8-5.2v-8.3C26.7,126.2,26.6,124.4,26.7,122.6z     M32.5,178.2v8.5c0,6.1-3.9,9.5-6.3,10.6c0.6-0.7,0.6-2.4,0.6-5.4v-3.1c0,0,0,0,0,0v-4.9c0-0.9,0-6,0-12.2c2-0.9,4.2-2.2,5.9-4.4    C32.5,171.3,32.5,176.8,32.5,178.2z M32.5,148.6v8.5c0,5.7-3.5,9.4-6.4,10.7c0.4-1.4,0.6-2.9,0.6-4.7v-0.2c0,0,0,0,0,0    c0-0.2,0-0.4,0-0.6v-3.1c0,0,0,0,0,0v-4.9c0-2.1-0.1-6-0.1-8.8c1.7-0.8,3.5-2,5-3.6c0.3-0.1,0.6-0.2,1-0.4    C32.5,143.9,32.5,147.1,32.5,148.6z M34.7,136.4c0.4-1.4,0.6-3,0.6-4.8v-13.3c0-0.3,0-0.5,0-0.8c1-0.5,2-1.1,2.9-1.8    c0.9-0.2,1.7-0.5,2.5-0.8c0,0.9,0,1.9,0,3.5v7.7C40.7,131.5,37.7,134.8,34.7,136.4z M40.7,169.4v7.7c0,5.1-2.6,8.3-5.4,10V174    c0-0.6,0-6.9,0-10.4c1.9-1,3.9-2.4,5.5-4.4C40.8,162.2,40.7,167.2,40.7,169.4z M40.7,141.6v7.7c0,5.2-2.7,8.4-5.4,10.1    c0-0.6,0.1-1.1,0.1-1.7v-13.3c0-0.4,0-2.4,0-4.1c1.1-0.6,2.2-1.3,3.2-2.1c0.7-0.2,1.4-0.5,2.2-0.9    C40.8,138.7,40.7,138.7,40.7,141.6z M43.7,135.8c1.1-0.7,2.2-1.5,3.2-2.5c0.4-0.2,0.8-0.4,1.1-0.6c0,0.7,0,1.4,0,2.3v7.7    c0,4.6-2.1,7.6-4.5,9.4c0.1-0.7,0.1-1.5,0.1-2.3v-11.4C43.6,137.7,43.6,136.7,43.7,135.8z M48,158.9v7.7c0,4.5-2,7.5-4.3,9.3    v-9.5c0-1,0-6.7,0.1-9.9c1.5-0.9,3.1-2.1,4.3-3.8C48,154.7,48,157.4,48,158.9z M48,114.4v7.7c0,5-2.5,8.2-5.2,9.9    c0.5-1.6,0.8-3.4,0.8-5.5v-11.4c0-0.6,0-1.2,0-1.9c1.4-0.9,2.6-1.9,3.6-3c0.3-0.1,0.6-0.3,0.9-0.4C48,111,48,112.4,48,114.4z     M55.4,156.6c0,2.4-1.9,4.8-4.5,6.8v-5.5c0-1.3-0.1-8.7,0-12.2c2.1-1.6,3.7-3.4,4.6-5.1C55.5,146.6,55.4,154.9,55.4,156.6z     M50.9,130.9c2.1-1.6,3.7-3.4,4.6-5c0,4.2-0.1,8-0.1,9.1c0,2.4-1.9,4.8-4.5,6.8v-7.7C50.9,133.2,50.8,132,50.9,130.9z     M55.4,120.2c0,2.6-2.3,5.1-5.1,7.2c0.4-1.4,0.6-2.9,0.6-4.6c0-4.3,0-3.4,0-9.3c0-1.5-0.1-3.6,0.1-5.3c2.1-1.5,3.5-3.2,4.5-5    C55.5,109.2,55.4,118.4,55.4,120.2z M49.1,202.1c0.2,0.8,1.1,6.6-1,7.2c-1.9,0.5-4.2-0.9-2.6-5.1c0.8-2.1-0.5-6.5,0.9-6.8    c1.7-0.4,3.2,2.1,3.8,3.9c0.2,0.5,0.1,1.3,0.1,1.5C49.8,202.1,49.1,200.8,49.1,202.1z M55,204c-0.1,0.4-0.1,0.8-0.2,1.2    c-0.4-0.9-1.2-3.2-1.2-1.6c0,1.1,0.1,7.2-1.9,7.3c-2,0.2-2.4-1.6-1.4-3.7c1-2.1,0.3-8.1,1.6-8.2c1.4-0.1,2.5,1.3,3,2.7    C55.1,202.3,55.2,202.9,55,204z M64.3,191.3c-0.6,1.3-1.7,1.6-2.2,2.5c-0.7,1.1-0.4,2.9-1.2,3.8c-0.6,0.6-0.9,1.1-0.6,2.6    c-0.5-0.9-1.2-1.4-1.8-1.8c-1.1-0.7-2.6-0.6-3.2,0.8c-0.2-0.3-0.4-0.6-0.7-0.9c0.2-0.4,0.4-0.8,0.6-1.2c0.4-0.9,0.3-2.1,0.6-2.6    c0.2-0.4,1-0.9,1.4-1.6c0.4-0.7,0.3-2.3,0.6-3.1c0.3-0.8,0.8-1.1,1.1-2.1c0.1-0.3,0.3-2.3,0.6-3c0.4-1.2,1.8-2.8,3.1-3.9    c0,2.7,0,3.4,0.5,6.5c1.3-1.3,2.3-2.2,3.1-3.3c0,2-0.2,2.5-1,3.9C64.6,189.3,64.9,190,64.3,191.3z M72.1,201    c1.1-1.1,1.7-3.4,2.4-6c0.5-2.1,6.2-23.3,7.6-28.6c0.9-0.9,1.7-1.6,2.5-2.1c0.5-0.4,1.2-0.7,2-0.9c-1.4,5.3-6.8,29.6-7.8,34.4    C78,201,75.6,201.7,72.1,201z M85.3,200.6c-0.6,3.2-0.9,5.2-4.6,4.3c-2.4-0.6-0.3-4.3,0.1-6.9c0.4-2.3,6.2-30.4,7-34.7    c1-0.1,2.2,0,3.4,0.3C90.5,166.6,85.3,200.5,85.3,200.6z M95.5,196.3c-0.2,3.1-0.5,5.4-0.6,6.2c-1.2,6.1-8.9,5.6-7.6-2.2    c0.4-2.1,4.4-30.4,5.2-36.4c1.6,0.4,3.2,1.1,4.5,1.9C97,169,96.1,185.7,95.5,196.3z M100.3,208.2c-1.5-0.9-2.7-2.5-2.7-7    c0-4.1,0.6-30.3,0.8-34.5c1,0.9,1.8,2,2,3.2c0.2-1.2,0.9-2.3,2-3.2c0.1,4.2,0.8,30.4,0.8,34.5    C103.1,205.7,101.9,207.3,100.3,208.2z M105.7,202.5c-0.1-0.8-0.3-3.1-0.6-6.2c-0.6-10.6-1.5-27.4-1.5-30.5    c1.3-0.8,2.9-1.5,4.5-1.9c0.9,6,4.8,34.3,5.2,36.4C114.7,208.1,106.9,208.6,105.7,202.5z M120,204.9c-3.7,0.9-4-1.1-4.6-4.3    c0-0.1-5.2-34-5.9-37c1.2-0.2,2.3-0.3,3.4-0.3c0.8,3.7,6.7,32.6,7,34.7C120.3,200.6,122.4,204.3,120,204.9z M126.2,195.1    c0.6,2.6,1.3,4.9,2.3,6c-3.4,0.6-5.8,0-6.6-3.1c-1-4.9-6.4-29.1-7.8-34.4c0.8,0.2,1.5,0.4,2,0.9c0.8,0.5,1.6,1.2,2.5,2.1    C120,171.8,125.7,192.9,126.2,195.1z M150.5,201.4c0.6-1.8,2-4.3,3.8-3.9c1.4,0.3,0.1,4.6,0.9,6.8c1.6,4.1-0.6,5.5-2.6,5.1    c-2.2-0.5-1.2-6.3-1-7.2c0.1-1.4-0.6,0-1.1,0.7C150.3,202.5,150.2,202.3,150.5,201.4z M148.7,199c1.4,0.1,0.6,6.1,1.6,8.2    c1,2.1,0.6,3.9-1.4,3.7c-2-0.2-1.9-6.3-1.9-7.3c0-1.5-0.8,0.8-1.2,1.6c-0.1-0.4-0.2-0.8-0.2-1.2c-0.2-1,0-1.7,0-2.3    C146.2,200.2,147.3,198.9,148.7,199z M143.5,193c0.4,0.7,1.2,1.2,1.4,1.6c0.3,0.5,0.2,1.7,0.6,2.6c0.2,0.4,0.4,0.8,0.6,1.2    c-0.3,0.3-0.5,0.6-0.7,0.9c-0.6-1.3-2.1-1.5-3.2-0.8c-0.6,0.4-1.2,0.9-1.7,1.8c0.2-1.5-0.1-2-0.7-2.6c-0.9-0.9-0.5-2.7-1.2-3.8    c-0.5-0.9-1.6-1.1-2.2-2.5c-0.6-1.3-0.3-2-1-3.3c-0.8-1.5-0.9-1.9-1-3.9c0.9,1.1,1.8,2,3.1,3.3c0.5-3.1,0.5-3.8,0.5-6.5    c1.3,1.1,2.7,2.8,3.1,3.9c0.3,0.7,0.5,2.6,0.6,3c0.3,1,0.8,1.3,1.1,2.1C143.3,190.7,143.2,192.2,143.5,193z M144,135.4    c0,0.2,0,0.3,0,0.5C144,135.7,144,135.6,144,135.4z M149.8,157.8v5.5c-2.5-2-4.5-4.4-4.5-6.8c0-1.7-0.1-10-0.1-16    c0.9,1.7,2.5,3.5,4.6,5.1C149.9,149.2,149.8,156.5,149.8,157.8z M145.2,125.9c0.9,1.7,2.5,3.5,4.6,5.1c0,1.1,0,2.2,0,3.1v7.7    c-2.5-2-4.5-4.4-4.5-6.8C145.3,133.9,145.2,130.1,145.2,125.9z M145.3,120.2c0-1.8-0.1-11-0.2-17.1c1,1.7,2.5,3.4,4.5,5    c0.2,1.7,0.1,3.8,0.1,5.3c0,5.9,0,5.1,0,9.3c0,1.7,0.2,3.3,0.6,4.6C147.6,125.3,145.3,122.7,145.3,120.2z M157,166.4v9.5    c-2.3-1.8-4.3-4.8-4.3-9.3v-7.7c0-1.4,0-4.1-0.1-6.2c1.2,1.6,2.8,2.9,4.3,3.8C157.1,159.7,157,165.4,157,166.4z M152.7,142.8    v-7.7c0-0.9,0-1.6,0-2.3c0.4,0.2,0.8,0.4,1.1,0.6c1,1,2.1,1.8,3.2,2.5c0.1,0.9,0.1,1.9,0.1,2.7v11.4c0,0.8,0.1,1.6,0.1,2.3    C154.8,150.4,152.7,147.4,152.7,142.8z M152.7,122.1v-7.7c0-2,0-3.4-0.1-4.5c0.3,0.1,0.6,0.3,0.9,0.4c1,1.1,2.1,2.1,3.6,3    c0,0.7,0,1.3,0,1.9v11.4c0,2.1,0.3,3.9,0.8,5.5C155.2,130.3,152.7,127.2,152.7,122.1z M165.3,174v13.2c-2.8-1.7-5.4-4.9-5.4-10    v-7.7c0-2.2-0.1-7.3-0.1-10.3c1.6,2,3.5,3.4,5.5,4.4C165.3,167.1,165.3,173.4,165.3,174z M159.9,149.3v-7.7    c0-2.9-0.1-2.9-0.1-4.3c0.8,0.3,1.6,0.6,2.3,0.9c1,0.8,2.1,1.5,3.2,2.1c0,1.7,0,3.7,0,4.1v13.3c0,0.6,0,1.2,0.1,1.7    C162.6,157.7,159.9,154.5,159.9,149.3z M159.9,126v-7.7c0-1.6,0-2.6,0-3.5c0.8,0.3,1.6,0.6,2.5,0.8c0.9,0.7,1.9,1.3,2.9,1.8    c0,0.3,0,0.6,0,0.8v13.3c0,1.8,0.2,3.4,0.6,4.8C163,134.8,159.9,131.5,159.9,126z M168.2,186.7v-8.5c0-1.5,0-6.9-0.1-11    c1.7,2.2,3.9,3.6,5.9,4.4c0,6.3,0,11.3,0,12.2v4.9c0,0,0,0,0,0v3.1c0,3,0,4.7,0.5,5.4C172.1,196.2,168.2,192.8,168.2,186.7z     M168.2,157v-8.5c0-1.5,0-4.7-0.1-7.1c0.3,0.1,0.7,0.2,1,0.4c1.5,1.6,3.3,2.7,5,3.6c0.1,2.8,0,6.7,0,8.8v4.9c0,0,0,0,0,0v3.1    c0,0.2,0,0.4,0,0.6c0,0,0,0,0,0v0.2c0,1.8,0.2,3.3,0.6,4.7C171.7,166.4,168.2,162.8,168.2,157z M168.2,130.9v-8.5    c0-1.5,0-2.8-0.1-3.8c0.3,0.1,0.7,0.3,1,0.4c1.5,1.6,3.3,2.7,5,3.6c0,1.8,0,3.6,0,5.5v8.3c0,2,0.3,3.7,0.7,5.2    C171.6,140.1,168.2,136.7,168.2,130.9z M177,208.2v-6.5c0,0,0,0,0,0c0-4.1-0.1-7.7-0.1-8.9v-9.7c0-0.8,0-5-0.1-10.5    c0.2,0.1,0.4,0.1,0.5,0.2c1.6,1.8,3.5,3,5.2,3.9v34.7c0,2.9,0.6,4.9,1.2,5.6C180.9,215.9,177,212.3,177,208.2z M177,164.3    c0-1-0.1-9.1-0.1-10.7c0-1.7-0.1-4.7-0.2-7c0.5,0.2,1,0.4,1.5,0.5c1.4,1.4,3,2.4,4.5,3.2v17.3c0,2.9,0.6,4.9,1.2,5.7    C180.9,172,177,168.5,177,164.3z M176.9,135.8v-8.4c0-1.4,0-2.6-0.1-3.7c0.5,0.2,0.9,0.3,1.4,0.5c1.4,1.4,3,2.4,4.5,3.1V141    c0,2.9,0.6,4.9,1.2,5.7C180.5,145.2,176.9,141.9,176.9,135.8z M176.8,112.9v-3l0,0c0-1.5,0-3,0-3.7c0-2.8-0.5-6.6-3.2-8.5    c0.8,3.2,0.3,3.8,0.3,9.1v3.8c0,0,0,0.1,0,0.6v2.4c0,2,0.3,3.7,0.7,5.2c-3.1-1.5-6.5-4.8-6.5-10.7c0-1.9-0.5-10-2.9-13.4v14    c0,1.8,0.2,3.5,0.7,4.9c-7.4-3.7-6.6-16.4-9-21.4c0,4.3,0.1,7.3,0.1,11.5c0,2.1,0.3,3.9,0.8,5.5c-6.4-4.1-7.2-12.2-7.7-18.2    c-0.6,2.2-1.7,8.1,0.1,13.7c-4.3-3.3-6.7-10.4-6.4-15.4c-0.6,2.8-1.3,6.9,0,11.1c-0.2,4.7-0.2,42.1-0.2,46.2    c-2.5-2-5-5.7-4.7-11.3c0.1-0.9,0.2-1.8,0.3-2.6c1.7-11.7,2.1-28.5-2.7-41.9c3.9,21-1,42.6-1.6,47c-1.2,7.8,1.4,23.9,6.9,41.7    c-1.1-1-4.7-2.6-6.2-4c0,1.6,0.6,3.3,0.6,6.9c-1.9-3.2-2.6-3.3-4.6-6.8c0.6,4.1,0.4,4.5,0.4,8c-1.9-3.7-3-8.6-7.5-15.5    c-9.9-15.5-24.3-5.9-24.3-3.2c0-2.7-14.3-12.3-24.3,3.2c-4.5,7-5.5,11.9-7.5,15.5c0-3.6-0.2-3.9,0.5-8c-2,3.5-2.7,3.6-4.6,6.8    c0-3.5,0.6-5.3,0.6-6.9c-1.5,1.5-5.1,3-6.2,4c5.5-17.8,8.1-33.9,6.9-41.7c-0.7-4.3-5.5-26-1.6-47c-4.8,13.5-4.5,30.3-2.7,41.9    c0.1,0.8,0.2,1.7,0.3,2.6c0.3,5.6-2.3,9.3-4.7,11.3c0-4.1,0.1-41.4-0.2-46.3c1.4-4.2,0.7-8.3,0-11.1c0.3,5-2.1,12.1-6.4,15.4    c1.8-5.6,0.7-11.4,0.1-13.7c-0.5,6-1.2,14.1-7.7,18.2c0.5-1.6,0.8-3.4,0.8-5.5c0-4.3,0.1-7.3,0.1-11.5c-2.4,4.9-1.7,17.6-9,21.4    c0.4-1.4,0.6-3,0.6-4.9v-14c-2.4,3.3-2.9,11.4-2.9,13.4c0,5.8-3.4,9.1-6.5,10.6c0.5-1.5,0.8-3.2,0.8-5.2v-2.4c0-0.4,0-0.6,0-0.6    v-3.8c0-5.4-0.6-5.9,0.3-9.1c-2.7,1.8-3.2,5.6-3.2,8.5c0,0.7,0,2.2,0,3.7l0,0v3c0,6.1-3.7,9.4-6.9,10.8c0.6-0.7,1.2-2.7,1.2-5.7    V88.8c0-8.2,9.6-17.7,13.2-21.9c9.9-11.6,14.2-2.2,24.1,1.2c16.5,5.6,25.3-0.6,25.3-0.6c8.8-5.5,8.8-10.8,8.8-14.1    c0-2.2-0.9-5.1-2.5-6.9c-3-3-8.4-4-9.3-3.8c-2,1-3.8,1-4.2,1.3c-0.9-1.8-0.7-4.7,3.5-7c1.2-0.6,0.7-2.1,4.3-4.2    c10.4-6.1,20.5-3.9,26.4,2.7c-2.1-0.8-4.1-1.5-7.6-1.8c5,1.7,10.8,5.8,14.6,12.6c1.6,2.7,5.1,10.2,6.3,12.4    c2.6,4.8,7.4,14.9,24.3,9.2c9.9-3.3,14.2-12.8,24.1-1.2c3.6,4.2,13.2,13.6,13.2,21.9v29.3c0,2.9,0.6,4.9,1.2,5.7    C180.5,122.4,176.8,119,176.8,112.9z"></path>			<path class="st17" d="M63.1,187.4c-0.5-3.1-0.5-3.8-0.5-6.5c-1.3,1.1-2.7,2.8-3.1,3.9c-0.3,0.7-0.5,2.6-0.6,3    c-0.3,1-0.8,1.3-1.1,2.1c-0.4,0.8-0.3,2.3-0.6,3.1c-0.4,0.7-1.2,1.2-1.4,1.6c-0.3,0.5-0.2,1.7-0.6,2.6c-0.2,0.4-0.4,0.8-0.6,1.2    c0.3,0.3,0.5,0.6,0.7,0.9c0.6-1.3,2.1-1.5,3.2-0.8c0.6,0.4,1.2,0.9,1.8,1.8c-0.2-1.5,0.1-2,0.6-2.6c0.9-0.9,0.5-2.7,1.2-3.8    c0.5-0.9,1.6-1.1,2.2-2.5c0.7-1.3,0.3-2,1-3.3c0.7-1.5,0.9-1.9,1-3.9C65.4,185.2,64.4,186.1,63.1,187.4z"></path>			<path class="st17" d="M141.2,184.8c-0.4-1.2-1.8-2.8-3.1-3.9c0,2.7,0,3.4-0.5,6.5c-1.3-1.3-2.3-2.2-3.1-3.3c0.1,2,0.2,2.5,1,3.9    c0.7,1.3,0.3,2,1,3.3c0.7,1.3,1.7,1.6,2.2,2.5c0.7,1.1,0.4,2.9,1.2,3.8c0.6,0.6,0.9,1.1,0.7,2.6c0.5-0.9,1.2-1.4,1.7-1.8    c1.1-0.7,2.6-0.6,3.2,0.8c0.2-0.3,0.4-0.6,0.7-0.9c-0.2-0.4-0.4-0.8-0.6-1.2c-0.4-0.9-0.3-2.1-0.6-2.6c-0.2-0.4-1-0.9-1.4-1.6    c-0.4-0.7-0.3-2.3-0.6-3.1c-0.4-0.8-0.8-1.1-1.1-2.1C141.7,187.4,141.4,185.5,141.2,184.8z"></path>			<path class="st17" d="M144,135.9c0-0.1,0-0.3,0-0.5C144,135.6,144,135.7,144,135.9z"></path>			<path class="st2" d="M78.6,43.6c-1.7,1.1-2.3,1.3-3.2,1.8c0.5,0.5,4.5-0.2,5.2-0.4l0,0c1-0.2,1.1,0.2,2.2,0.6    C81,44.4,79.8,43.7,78.6,43.6z"></path>			<path class="st18" d="M132.6,112.3c0,17.8-14.4,32.2-32.2,32.2c-17.8,0-32.2-14.4-32.2-32.2c0-17.8,14.4-32.2,32.2-32.2    C118.2,80.1,132.6,94.5,132.6,112.3z"></path>							<linearGradient id="SVGID_00000065036388889649201260000017719261519743127217_" gradientUnits="userSpaceOnUse" x1="72.7822" y1="112.2551" x2="127.5107" y2="112.2551">				<stop offset="1.123600e-02" style="stop-color:#E1E0E0"></stop>				<stop offset="7.931773e-02" style="stop-color:#ECEBEB"></stop>				<stop offset="0.1853" style="stop-color:#F7F6F6"></stop>				<stop offset="0.3161" style="stop-color:#FDFDFD"></stop>				<stop offset="0.544" style="stop-color:#FFFFFF"></stop>				<stop offset="0.6673" style="stop-color:#FCFCFC"></stop>				<stop offset="0.7843" style="stop-color:#F3F3F3"></stop>				<stop offset="0.8983" style="stop-color:#E4E3E3"></stop>				<stop offset="0.9725" style="stop-color:#D6D6D6"></stop>			</linearGradient>			<path style="fill:url(#SVGID_00000065036388889649201260000017719261519743127217_);" d="M127.5,112.3    c0,15.1-12.2,27.4-27.4,27.4c-3.3,0-6.4-0.6-9.4-1.6c-10.5-3.8-18-13.9-18-25.7c0-11.9,7.6-22,18.1-25.8c2.9-1,6-1.6,9.3-1.6    C115.3,84.9,127.5,97.1,127.5,112.3z"></path>			<path class="st20" d="M126,103.1L126,103.1c-23.9-6.4-51.6,0-51.6,0c2.7-7.7,8.8-13.9,16.6-16.7c2.9-1,6-1.6,9.3-1.6    C112.1,84.9,122.2,92.5,126,103.1z"></path>			<path d="M126,121.4L126,121.4c-23.9,6.4-51.6,0-51.6,0c2.7,7.7,8.8,13.9,16.6,16.7c2.9,1,6,1.6,9.3,1.6    C112.1,139.6,122.2,132,126,121.4z"></path>							<image style="overflow:visible;" width="139" height="63" xlink:href="F84D1BD526F47276.png" transform="matrix(0.24 0 0 0.24 90.36 122.36)">			</image>							<image style="overflow:visible;" width="138" height="62" xlink:href="F84D1BD526F4727A.png" transform="matrix(0.24 0 0 0.24 90.84 87.08)">			</image>							<linearGradient id="SVGID_00000048480979066628065460000017955478565331556236_" gradientUnits="userSpaceOnUse" x1="105.48" y1="112.4652" x2="87.961" y2="123.4045">				<stop offset="0" style="stop-color:#FFFFFF"></stop>				<stop offset="0.6292" style="stop-color:#D6D6D6"></stop>			</linearGradient>			<path style="fill:url(#SVGID_00000048480979066628065460000017955478565331556236_);" d="M104.4,101.4    c11.7,0.6,19.5,2.2,19.5,2.2c2.5,2.5,2.3,12.8,0.1,17.2c0,0-8.4,1.8-17.8,2.2c-6.8,0.3-15.3-0.4-15.3-0.4s-0.4-3-0.4-10.4    c0-7.4,0.3-10.5,0.3-10.5S98,101.1,104.4,101.4z"></path>			<path class="st22" d="M89,111.7c0,15.6,1.8,26.3,1.8,26.3c-10.5-3.8-18-13.9-18-25.7c0-11.9,7.6-22,18.1-25.8    C90.9,86.5,89,95.8,89,111.7z"></path>							<image style="overflow:visible;" width="61" height="190" xlink:href="F84D1BD526F4727D.png" transform="matrix(0.24 0 0 0.24 75.48 89.96)">			</image>			<g>				<g>					<path d="M100.4,145.9c-18.5,0-33.6-15.1-33.6-33.6c0-18.5,15.1-33.6,33.6-33.6c18.5,0,33.6,15.1,33.6,33.6      C134,130.8,118.9,145.9,100.4,145.9z M100.4,81c-17.2,0-31.3,14-31.3,31.3c0,17.3,14,31.3,31.3,31.3c17.3,0,31.3-14,31.3-31.3      C131.7,95.1,117.6,81,100.4,81z"></path>				</g>				<g>					<path d="M119.8,140.8c0,0-2.8-0.8-3.5-1l-0.9-3.5c0,0,0-0.1-0.1-0.1c0,0-0.1,0-0.1,0c0,0-1.6,2.3-2,2.9c-0.8,0-3.6-0.2-3.6-0.2      c0,0-0.1,0-0.1,0c0,0,0,0,0,0.1l2.2,2.9c-0.3,0.7-1.4,3.5-1.4,3.5c0,0,0,0.1,0,0.1c0,0,0.1,0,0.1,0l3.4-1.4l2.7,2.1      c0,0,0,0,0,0c0,0,0,0,0,0c0,0,0,0,0-0.1c0,0,0-3,0-3.4c0.7-0.4,3.1-1.8,3.1-1.8C119.9,140.9,119.9,140.9,119.8,140.8      C119.9,140.8,119.9,140.8,119.8,140.8"></path>					<path class="st2" d="M117,141.2C117,141.2,117,141.2,117,141.2c0-0.1,0-0.1,0-0.1l-0.4-0.1l-1.2-0.4l-0.2-0.7l-0.3-1l0,0      c0,0,0,0,0,0c0,0,0,0-0.1-0.1c0,0-0.1,0-0.1,0l-1.1,1.4l-1.7,0c0,0,0,0,0,0c0,0,0,0,0,0c0,0,0,0,0,0c0,0,0,0,0,0l1.1,1.4      l-0.3,0.9l-0.2,0.7c0,0,0,0,0,0c0,0,0,0,0,0.1l0,0c0,0,0,0,0.1,0c0,0,0,0,0,0h0l0.6-0.3l0.9-0.4l1.4,1.1c0,0,0,0,0.1,0      c0,0,0,0,0,0c0,0,0,0,0-0.1l0-1.8L117,141.2C117,141.3,117,141.2,117,141.2"></path>					<path d="M90.7,138.9C90.7,138.9,90.7,138.9,90.7,138.9c-0.1,0-2.9,0.2-3.6,0.2c-0.5-0.6-2-2.9-2-2.9c0,0-0.1,0-0.1,0      c0,0-0.1,0-0.1,0.1l-0.9,3.5c-0.8,0.2-3.5,1-3.5,1c0,0-0.1,0-0.1,0.1c0,0,0,0.1,0,0.1c0,0,2.4,1.4,3.1,1.8c0,0.5,0,3.4,0,3.4      c0,0,0,0,0,0.1c0,0,0,0,0,0c0,0,0,0,0.1,0l2.7-2.1l3.4,1.4c0,0,0.1,0,0.1,0c0,0,0-0.1,0-0.1c0,0-1.1-2.7-1.4-3.5L90.7,138.9      C90.8,139,90.8,139,90.7,138.9"></path>					<path class="st2" d="M87.7,141.1l0.6-0.8c0,0,0,0,0,0c0,0,0,0,0,0c0,0,0,0-0.1,0l-1.7,0l-0.5-0.7l-0.5-0.7h0c0,0,0,0-0.1,0      c0,0-0.1,0-0.1,0.1l-0.5,1.7l-0.8,0.3l-0.8,0.3c0,0-0.1,0-0.1,0.1c0,0,0,0.1,0,0.1l1.4,0.8l0,1.8c0,0,0,0,0,0.1c0,0,0,0,0,0v0      c0,0,0,0,0,0l0.9-0.7l0.5-0.4l1.1,0.5l0.4,0.2c0,0,0.1,0,0.1,0h0c0,0,0-0.1,0-0.1l-0.3-0.9l-0.3-0.7L87.7,141.1z"></path>					<path d="M80.2,92.2l-3.3-1.7l-0.3-3.7c0,0,0-0.1,0-0.1c0,0-0.1,0-0.1,0c0,0-1.9,2.1-2.4,2.7l-3.3-0.8c0,0-0.1,0-0.1,0      c0,0,0,0.1,0,0.1c0,0,1.1,2.4,1.4,3.1c-0.5,0.6-2,3-2,3c0,0,0,0.1,0,0.1c0,0,0,0,0.1,0c0,0,2.8-0.5,3.6-0.6l2.3,2.7      c0,0,0,0,0.1,0l0,0c0,0,0.1,0,0.1-0.1c0,0,0.5-2.7,0.6-3.5c0.8-0.3,3.3-1.3,3.3-1.3C80.2,92.4,80.2,92.3,80.2,92.2      C80.2,92.3,80.2,92.2,80.2,92.2"></path>					<path d="M105.4,78C105.4,77.9,105.4,77.9,105.4,78c-0.1,0-2.9-0.2-3.7-0.3c-0.3-0.7-1.5-3-1.5-3l0,0c0,0,0,0-0.1,0c0,0,0,0,0,0      c0,0-1.2,2.3-1.5,3.1c-0.8,0-3.6,0.2-3.6,0.2c0,0-0.1,0-0.1,0.1c0,0,0,0.1,0,0.1c0,0,2.1,1.9,2.7,2.5l-0.7,3.6c0,0,0,0.1,0,0.1      c0,0,0,0,0,0c0,0,0,0,0,0c0,0,2.4-1.4,3.1-1.7c0.7,0.3,3.1,1.7,3.1,1.7c0,0,0.1,0,0.1,0c0,0,0.1,0,0-0.1l-0.7-3.6      C103.2,80,105.4,78.1,105.4,78C105.4,78,105.4,78,105.4,78"></path>					<path class="st2" d="M102.7,78.9C102.7,78.9,102.7,78.8,102.7,78.9l-1.7-0.1l-0.8-1.7c0,0,0-0.1-0.1-0.1c0,0-0.1,0-0.1,0.1      l-0.8,1.7l-1.6,0.1c0,0-0.1,0-0.1,0.1c0,0,0,0.1,0,0.1l1.2,1.2l-0.3,1.8c0,0,0,0.1,0,0.1c0,0,0,0,0.1,0l1.5-0.8l1.5,0.8      c0,0,0,0,0,0c0,0,0,0,0,0c0,0,0,0,0-0.1l-0.3-1.8L102.7,78.9C102.7,79,102.7,78.9,102.7,78.9"></path>					<path d="M130.2,94.9c0,0-1.6-2.3-2-3c0.4-0.7,1.4-3.1,1.4-3.1c0,0,0-0.1,0-0.1c0,0,0,0-0.1,0l-3.3,0.8      c-0.5-0.6-2.4-2.7-2.4-2.7c0,0,0,0-0.1,0c0,0,0,0,0,0.1l-0.3,3.7l-3.3,1.7c0,0,0,0,0,0.1c0,0,0,0.1,0.1,0.1c0,0,2.6,1,3.3,1.3      c0.2,0.8,0.6,3.5,0.6,3.5c0,0,0,0.1,0.1,0.1c0,0,0,0,0,0c0,0,0,0,0.1,0l2.3-2.8c0.8,0.1,3.6,0.6,3.6,0.6      C130.2,95.1,130.2,95.1,130.2,94.9C130.2,95,130.2,95,130.2,94.9"></path>					<path class="st2" d="M127.8,93.4l-1-1.3l0.8-1.6c0,0,0-0.1,0-0.1c0,0-0.1,0-0.1,0l-1.8,0.4l-1-1.2c0,0-0.1,0-0.1,0      c0,0,0,0,0,0.1l-0.1,1.7l-1.6,0.8c0,0-0.1,0-0.1,0.1c0,0,0,0.1,0.1,0.1l1.6,0.7l0.3,1.7c0,0,0,0,0.1,0.1c0,0,0,0,0,0      c0,0,0,0,0.1,0l1.2-1.4l1.7,0.2C127.8,93.5,127.8,93.5,127.8,93.4C127.9,93.4,127.9,93.4,127.8,93.4"></path>					<path class="st2" d="M77.4,92.1l-1.6-0.8l-0.1-1.7c0,0,0-0.1-0.1-0.1c0,0-0.1,0-0.1,0l-1.1,1.2l-1.8-0.4c0,0-0.1,0-0.1,0      c0,0,0,0.1,0,0.1l0.8,1.6l-1,1.3c0,0,0,0.1,0,0.1c0,0,0,0,0.1,0l1.7-0.2l1.2,1.4c0,0,0,0,0.1,0c0,0,0,0,0,0c0,0,0.1,0,0.1-0.1      l0.3-1.7l1.6-0.7C77.5,92.2,77.5,92.2,77.4,92.1C77.5,92.1,77.5,92.1,77.4,92.1"></path>					<path d="M73.6,121.8c0,0-1.8-2-2.3-2.6c0.2-0.8,1-3.4,1-3.4c0,0,0-0.1,0-0.1c0,0-0.1,0-0.1,0l-3.3,1.5c-0.7-0.4-3-2.1-3-2.1      c0,0-0.1,0-0.1,0c0,0,0,0,0,0.1c0,0,0.4,2.8,0.5,3.5l-2.7,2.1c0,0,0,0,0,0.1c0,0,0,0.1,0.1,0.1c0,0,2.6,0.6,3.4,0.8      c0.2,0.8,1,3.4,1,3.4c0,0,0,0.1,0.1,0.1l0,0c0,0,0.1,0,0.1,0c0,0,1.4-2.5,1.8-3.1l3.6-0.1C73.5,121.9,73.6,121.9,73.6,121.8      C73.6,121.8,73.6,121.8,73.6,121.8"></path>					<path class="st2" d="M71.2,120.7l-1.1-1.3l0.4-1.7c0,0,0-0.1,0-0.1c0,0,0,0-0.1,0l-1.6,0.7l-1.4-0.9c0,0-0.1,0-0.1,0      c0,0,0,0,0,0.1l0.3,1.6l-1.5,1.2c0,0,0,0.1,0,0.1c0,0,0,0.1,0.1,0.1l1.8,0.4l0.4,1.6c0,0,0,0.1,0.1,0.1h0c0,0,0.1,0,0.1,0      l0.9-1.5l1.8,0C71.1,120.8,71.2,120.8,71.2,120.7C71.2,120.8,71.2,120.7,71.2,120.7"></path>					<path d="M136.7,120.8l-2.7-2.1c0.2-0.8,0.5-3.5,0.5-3.5c0,0,0-0.1,0-0.1c0,0-0.1,0-0.1,0c0,0-2.3,1.6-3,2.1l-3.3-1.5      c0,0-0.1,0-0.1,0c0,0,0,0.1,0,0.1c0,0,0.8,2.6,1,3.4c-0.5,0.6-2.3,2.7-2.3,2.7c0,0,0,0.1,0,0.1c0,0,0,0,0.1,0l3.6,0.1      c0.4,0.7,1.8,3.1,1.8,3.1c0,0,0,0,0.1,0h0c0,0,0,0,0.1-0.1c0,0,0.8-2.7,1-3.4c0.8-0.2,3.4-0.8,3.4-0.8      C136.7,120.9,136.8,120.9,136.7,120.8C136.8,120.8,136.8,120.8,136.7,120.8"></path>					<path class="st2" d="M134.3,120.2l-1.5-1.2l0.3-1.6c0,0,0-0.1,0-0.1c0,0-0.1,0-0.1,0l-1.4,0.9l-1.6-0.7c0,0-0.1,0-0.1,0      c0,0,0,0,0,0.1l0.4,1.7l-1.1,1.3c0,0,0,0.1,0,0.1c0,0,0,0,0.1,0.1l1.8,0l0.9,1.5c0,0,0,0,0.1,0h0c0,0,0.1,0,0.1-0.1l0.4-1.6      l1.8-0.4C134.3,120.3,134.3,120.3,134.3,120.2C134.3,120.3,134.3,120.2,134.3,120.2"></path>				</g>			</g>			<g>				<path class="st2" d="M146.3,233c0.4,1.3-0.5,2.9-2.1,3.3c-1.4,0.4-2.8-0.1-3.4-1.1c0.4,0.6,1.3,0.8,2.1,0.6     c1.1-0.3,1.7-1.3,1.4-2.2l0,0c-0.4-1.4-0.8-2.7-1.3-4.1c-0.2-0.5-0.6-0.7-1.2-0.5c0.7-1.1,1.3-2.2,2-3.3     C144.7,228.1,145.5,230.5,146.3,233z"></path>				<path class="st2" d="M90.5,242.3c0.5,0,1-0.3,1-0.8c0-0.5-0.4-0.9-0.9-0.9c-0.6,0-1,0.3-1.1,0.8     C89.5,241.9,89.9,242.3,90.5,242.3z"></path>				<path class="st2" d="M64.1,223.9c-0.5-0.1-1,0.1-1.1,0.6c-0.1,0.5,0.2,0.9,0.7,1.1c0.5,0.1,1-0.1,1.1-0.6     C64.9,224.5,64.6,224,64.1,223.9z"></path>				<path class="st2" d="M129.2,227.1c-0.5,0.1-0.8,0.6-0.7,1c0.1,0.5,0.6,0.7,1.1,0.6c0.5-0.1,0.8-0.6,0.7-1     C130.2,227.3,129.7,227,129.2,227.1z"></path>				<path class="st2" d="M94.5,242.5c0.6,0,1-0.3,1-0.8c0-0.5-0.4-0.9-1-0.9c-0.5,0-1,0.3-1,0.8C93.5,242.1,94,242.5,94.5,242.5z"></path>				<path class="st2" d="M88.1,242.1c0.5,0,1-0.3,1.1-0.8c0-0.5-0.4-0.9-0.9-0.9c-0.6,0-1,0.3-1.1,0.8     C87.1,241.7,87.5,242.1,88.1,242.1z"></path>				<path class="st2" d="M66.2,224.5c-0.5-0.1-1,0.1-1.1,0.6c-0.1,0.5,0.2,0.9,0.7,1.1c0.5,0.1,1-0.1,1.1-0.6     C67,225.1,66.7,224.6,66.2,224.5z"></path>				<path class="st2" d="M131.4,226.6c-0.5,0.1-0.8,0.6-0.7,1c0.1,0.5,0.6,0.7,1.1,0.6c0.5-0.1,0.8-0.6,0.7-1     C132.4,226.8,131.9,226.5,131.4,226.6z"></path>				<path class="st2" d="M166.4,223.7L166.4,223.7L166.4,223.7c-0.3-0.5-0.5-1-0.8-1.5l0,0c-2-4.1-4.1-8.1-6.1-12.2     c1.2,0.3,2.3,0.6,3.5,0.9c-0.6,0.5-0.5,1-0.3,1.5c1.8,3.5,3.6,6.9,5.4,10.4C167.6,223.1,167,223.4,166.4,223.7z"></path>				<path class="st2" d="M118.3,238.2L118.3,238.2L118.3,238.2c-0.6-5.1-1.2-10.1-1.8-15.2c1,0.7,2,1.4,3,2     c-0.7,0.3-0.8,0.8-0.7,1.3c0.5,3.9,1,7.8,1.6,11.7C119.6,238.1,119,238.2,118.3,238.2z"></path>				<path class="st2" d="M77.9,237.5L77.9,237.5L77.9,237.5c0.8-5.1,1.6-10.1,2.4-15.2c0.8,0.9,1.5,1.8,2.3,2.8     c-0.7,0.1-1,0.6-1.1,1.1c-0.6,3.9-1.1,7.8-1.7,11.6C79.2,237.7,78.6,237.6,77.9,237.5z"></path>				<path class="st2" d="M140.4,233.8L140.4,233.8L140.4,233.8c-0.2-0.6-0.3-1.1-0.5-1.7l0,0c-1.2-4.4-2.5-8.7-3.7-13.1     c1.1,0.5,2.2,1,3.3,1.5c-0.7,0.4-0.7,0.9-0.5,1.4c1.1,3.8,2.2,7.5,3.3,11.3C141.6,233.5,141,233.7,140.4,233.8z"></path>				<path class="st2" d="M138.4,234.4c-0.7-2.7-1.5-5.5-2.2-8.2c-0.7,1-1.4,2-2.1,3c0.8,0,1.1,0.4,1.2,0.9c0.3,1.1,0.5,2.1,0.8,3.2     c-2.8,0.7-5.7,1.3-8.5,1.9c-0.4,0.1-0.8,0.1-1.2,0.2c-0.6-0.4-1.2-0.7-1.8-1.1c1.3-1.4,2.2-3.8,1.7-5.8c-0.3,2.8-1.6,4.8-4.8,6     c1.4,0.9,2.9,1.9,4.4,2.7c0.7-0.1,1.3-0.2,1.9-0.4l0,0C131.4,236.1,134.9,235.3,138.4,234.4z"></path>				<path class="st2" d="M152.4,223.9L152.4,223.9c1.2,0.4,2.4,0.9,3.7,1.3c0.4,0.9,0.8,1.9,1.2,2.8c-0.9,0.4-1.8,0.8-2.8,1.1     c-0.2-0.5-0.4-1.1-0.6-1.6c0.3-0.1,0.6-0.2,0.9-0.4c-0.1-0.2-0.2-0.4-0.3-0.6c-0.4-0.1-0.8-0.3-1.2-0.4l0,0     C153,225.3,152.7,224.6,152.4,223.9z M147.9,231.5L147.9,231.5L147.9,231.5c-0.2-0.5-0.4-1.1-0.5-1.6l0,0     c-1.5-4.3-2.9-8.6-4.4-12.9c1.1,0.5,2.2,0.9,3.3,1.4c-0.6,0.4-0.6,1-0.5,1.4c1.1,3.2,2.2,6.3,3.4,9.5c0.6-0.2,1.3-0.5,1.9-0.7     c-0.2-0.4-0.3-0.9-0.5-1.3c0.6-1.1,1.2-2.3,1.8-3.4c0.3,0.7,0.6,1.5,0.9,2.2c-0.2,0.4-0.4,0.8-0.6,1.1c0.1,0.2,0.2,0.4,0.2,0.6     c0.3-0.1,0.6-0.2,0.9-0.4c0.2,0.5,0.4,1.1,0.6,1.6c-1.6,0.6-3.1,1.2-4.7,1.8c-0.2,0.1-0.3,0.1-0.5,0.2     C148.8,231.2,148.4,231.4,147.9,231.5z"></path>				<path class="st2" d="M107.6,230.6L107.6,230.6c0.7,0,1.6,0.7,1.9,1.2c0.7,0,1.5-0.1,2.2-0.2c-0.8,1.9-1.7,3.8-2.7,5.6     c1.7-0.1,3.4-0.2,5.1-0.4c-0.3-3.3-0.6-6.7-0.9-10c0-0.5-0.3-1-1-1.1c0.8-0.9,1.6-1.8,2.4-2.6c0.5,5.1,1.1,10.2,1.6,15.3l0,0     l0,0c-0.6,0.1-1.1,0.1-1.7,0.2c-0.1,0-0.2,0-0.3,0c-2.1,0.2-4.3,0.3-6.4,0.5c-0.1-1.1-0.1-2.3-0.2-3.4l0,0     c0.4-0.7,0.7-1.4,1-2.1c-0.2,0-0.4,0-0.6,0c-0.1-0.5-0.3-0.7-0.6-1l0,0C107.6,232,107.6,231.3,107.6,230.6z M101.7,240.1     c0,1.4-1.3,2.6-3,2.6c-1.4,0-2.6-0.9-2.9-2.1c0.3,0.7,1,1.2,1.9,1.2c1.1,0,2-0.8,2-1.7l0,0c0-1.4,0-2.8,0-4.3     c0-0.5-0.4-0.9-0.9-0.9c1-0.8,1.9-1.7,2.8-2.5c0,1.7,0,3.4,0,5.1c1.7,0,3.3,0,5-0.1c-1.1-1.8-2.2-3.6-3.2-5.4     c0.7,0,1.5,0,2.2-0.1c0.2-0.6,1.1-1.3,1.8-1.4c0,0.7,0.1,1.4,0.1,2c-0.3,0.3-0.5,0.6-0.5,1.1c-0.2,0-0.4,0-0.6,0     c0.4,0.7,0.8,1.3,1.2,2c0.1,1.1,0.1,2.3,0.2,3.4c-2.1,0.1-4.2,0.2-6.3,0.2C101.7,239.6,101.7,239.8,101.7,240.1z"></path>				<path class="st2" d="M69.2,235.8c1.6,0.4,3.2,0.7,4.9,1c0.1,0,0.1,0,0.2,0c0.6,0.1,1.2,0.2,1.7,0.3l0,0c0,0,0,0,0,0     c0.9-5,1.7-10.1,2.6-15.1c-1,0.6-2,1.3-3.1,1.9c0.7,0.3,0.8,0.8,0.7,1.3c-0.6,3.3-1.2,6.6-1.8,9.9c-0.6-0.1-1.3-0.2-1.9-0.4     c0.1-0.4,0.2-0.9,0.3-1.3c-0.8-1-1.6-2.1-2.3-3.1c-0.2,0.8-0.4,1.6-0.5,2.3c0.3,0.3,0.5,0.7,0.8,1c0,0.2-0.1,0.4-0.1,0.7     c-0.3-0.1-0.6-0.1-1-0.2C69.4,234.7,69.3,235.2,69.2,235.8z M56.8,230.6L56.8,230.6c0.1-0.2,0.1-0.4,0.2-0.7     c0.4-1.4-0.5-3-2.1-3.6c-0.1,0-0.2-0.1-0.4-0.1l0,0c-3.6-1.2-7.1-2.6-10.6-4.2c0.2-0.5,0.5-1,0.7-1.6c0.2-0.5,0.7-0.6,1.2-0.4     c-0.5-1.2-1-2.3-1.5-3.5c-0.9,2.1-1.9,4.1-2.9,6.2c4.2,1.9,8.5,3.7,12.8,5.2c0.6,0.2,1,0.8,0.8,1.3l0,0     c-0.1,0.2-0.2,0.4-0.2,0.6l0,0c-0.2,0.6-0.4,1.2-0.6,1.8c-0.4,0.2-0.8,0.3-1.2,0.5c-0.2-0.4-0.4-0.8-0.7-1.2     c0.2-0.6,0.4-1.2,0.6-1.7c-0.5-0.2-0.9-0.3-1.4-0.5c-0.2-0.1-0.3-0.1-0.5-0.2c-3.5-1.3-7-2.7-10.4-4.3c-0.2,0.5-0.5,1-0.7,1.6     c3.5,1.6,7,3,10.5,4.3c-0.1,0.3-0.2,0.5-0.3,0.8c0.7,1.2,1.3,2.3,2,3.4l0,0l0,0c1.2-0.5,2.4-0.9,3.7-1.4     c0.1-0.3,0.2-0.6,0.3-0.8c1.4,0.4,2.7,0.9,4.1,1.3c0.3,0.4,0.6,0.7,1,1c-0.2-0.3-0.4-0.6-0.5-0.9c1.1,0.3,2.3,0.6,3.4,0.9     c1.6,0.4,3.2,0.8,4.8,1.2c0.1-0.6,0.3-1.1,0.4-1.7c-0.3-0.1-0.6-0.1-0.9-0.2c0-0.2,0.1-0.4,0.2-0.7c0.4-0.2,0.8-0.4,1.1-0.6l0,0     c0.2-0.8,0.3-1.6,0.5-2.3l0,0c-1.1,0.6-2.2,1.2-3.4,1.8c-0.1,0.4-0.2,0.9-0.3,1.3c-0.7-0.2-1.3-0.3-1.9-0.5     c0.5-1.9,1-3.7,1.5-5.6c-1.1,0.5-2.2,1.1-3.4,1.6c0.7,0.4,0.7,0.9,0.6,1.4c-0.2,0.7-0.4,1.4-0.6,2.2c-0.3-0.1-0.6-0.2-0.8-0.2     c0,0,0,0,0,0c-0.5-0.1-1.1-0.3-1.6-0.5c0-0.7,0.1-1.4,0.2-2c0.4-2.1,1-4.5-1.6-7.3c-0.8,0.4-1.5,0.7-2.3,1.1     c1.9,0.6,2.6,2.3,2.9,3.6c0.3,1.7-0.6,2.9-0.2,4.3C58.6,231.2,57.7,230.9,56.8,230.6C56.7,230.6,56.8,230.6,56.8,230.6z"></path>				<path class="st2" d="M85.9,236.8c0.3,0,0.7,0.1,1,0.1c0.1-0.7,0.1-1.4,0.2-2.2c-0.3,0.1-0.6,0.2-1,0.2c0.1-0.6,0.1-1.3,0.2-1.9     c0.5-0.2,1-0.5,1.1-1.3c0.2-1.6,0.3-3.3,0.5-4.9c0-0.5-0.1-1-0.8-1.3c1-0.7,1.9-1.4,2.9-2.1c-0.4,4.6-0.8,9.1-1.1,13.6     c1,0.1,2.1,0.2,3.1,0.2c0-0.7,0.1-1.5,0.1-2.2c0-0.5-0.1-1-0.9-1.2c1-0.7,2-1.5,3-2.2c-0.1,1.9-0.2,3.9-0.3,5.8     c0.6,0,1.3,0.1,1.9,0.1c0-0.7,0.1-1.5,0.1-2.2c0-0.5-0.2-1-0.9-1.2c1-0.8,1.9-1.5,2.9-2.3c-0.1,2.5-0.1,5-0.2,7.5     c-2.9-0.1-5.8-0.2-8.7-0.5l0,0c-1.1-0.1-2.2-0.2-3.3-0.3C85.8,237.9,85.8,237.4,85.9,236.8z M85.9,235L85.9,235     c-0.5,0-0.9,0.4-0.9,0.8c0,0.3-0.1,0.6-0.1,0.9c0.3,0,0.7,0.1,1,0.1c-0.1,0.6-0.1,1.1-0.2,1.7c-0.2,0-0.4,0-0.6-0.1l0,0     c-0.8-0.1-1.6-0.2-2.3-0.3c0.1-0.9,0.2-1.7,0.3-2.6c0.2-1.2,1.3-2.2,2.6-2.3c0-0.1,0.3-0.1,0.6-0.2c-0.1,0.6-0.1,1.3-0.2,1.9     C86,235,86,235,85.9,235z"></path>				<path class="st2" d="M36.2,222.2c0.3,0.2,0.6,0.3,0.9,0.5c0.3-0.6,0.6-1.3,1-1.9c-0.3,0-0.7,0-1.1-0.1c0.3-0.6,0.6-1.1,0.9-1.7     c0.5,0,1.2-0.1,1.5-0.8c0.7-1.5,1.5-2.9,2.2-4.4c0.2-0.5,0.3-1-0.3-1.5c1.2-0.3,2.4-0.6,3.5-1c-2.2,4.6-4.4,9.2-6.6,13.9     c-0.9-0.4-1.8-0.9-2.7-1.3C35.7,223.2,36,222.7,36.2,222.2z M36.9,220.6L36.9,220.6c-0.5-0.1-1,0-1.2,0.4     c-0.1,0.3-0.3,0.5-0.4,0.8c0.3,0.2,0.6,0.3,0.9,0.5c-0.3,0.5-0.5,1-0.8,1.5c-0.9-0.5-1.8-0.9-2.7-1.4c0.4-0.8,0.8-1.5,1.2-2.3     c0.6-1.1,2-1.6,3.3-1.2c0-0.1,0.3,0,0.6,0c-0.3,0.6-0.6,1.1-0.9,1.7C37,220.6,36.9,220.6,36.9,220.6z"></path>				<g>					<path class="st2" d="M86.4,224c0-0.5-0.3-0.9-0.8-0.9c-0.5-0.1-0.9,0.3-1,0.7c-0.1,0.5,0.3,0.9,0.8,1      C85.9,224.8,86.3,224.5,86.4,224z"></path>					<path class="st2" d="M86.2,226c0-0.5-0.3-0.9-0.8-1c-0.5,0-0.9,0.3-1,0.7c-0.1,0.5,0.3,0.9,0.8,1      C85.7,226.8,86.1,226.5,86.2,226z"></path>				</g>				<g>					<path class="st2" d="M38.6,211.3c-0.2,0.4,0,1,0.4,1.2c0.5,0.2,1,0.1,1.2-0.4c0.2-0.4,0-0.9-0.4-1.2      C39.3,210.8,38.8,210.9,38.6,211.3z"></path>					<path class="st2" d="M39.5,209.5c-0.2,0.4,0,0.9,0.4,1.2c0.5,0.2,1,0.1,1.2-0.3c0.2-0.4,0-0.9-0.4-1.2      C40.3,209,39.7,209.1,39.5,209.5z"></path>				</g>				<path class="st2" d="M160.1,219.6c-1.3-2.7-2.5-5.3-3.8-8c1.3,0.4,2.5,0.8,3.8,1.2c-0.6,0.5-0.7,1.1-0.5,1.6     c0.8,1.7,1.7,3.4,2.5,5.1c-0.3,0.6-0.5,1.3-0.8,1.9c0.7,0.2,1.3,0.4,2,0.6c0.4,0.9,0.9,1.8,1.3,2.8c-0.9,0.4-1.8,0.9-2.7,1.3     c-0.2-0.5-0.5-1-0.7-1.6c0.3-0.1,0.6-0.3,0.9-0.4c-0.1-0.2-0.2-0.4-0.3-0.6c-0.4-0.1-0.8-0.2-1.3-0.3l0,0     c-0.3-0.7-0.7-1.5-1-2.2l0,0C159.7,220.4,159.9,220,160.1,219.6z M161.9,225.9c-0.9,0.4-1.8,0.8-2.7,1.2     c-0.4-0.9-0.8-1.9-1.2-2.8c0.3-0.6,0.6-1.2,0.9-1.9c-0.7-0.2-1.3-0.4-2-0.6c0-0.1-0.1-0.2-0.1-0.3c-0.7-1.6-1.4-3.2-2.1-4.8     c-0.2-0.5-0.8-0.8-1.5-0.7c0.5-1.2,1.1-2.4,1.6-3.7c1.2,2.7,2.4,5.4,3.6,8.1c0.4,0.1,0.8,0.3,1.2,0.4c0.3,0.7,0.7,1.5,1,2.2     c-0.2,0.4-0.4,0.8-0.5,1.2c0.1,0.2,0.2,0.4,0.3,0.6c0.3-0.1,0.6-0.3,0.9-0.4C161.4,224.9,161.7,225.4,161.9,225.9z"></path>				<path class="st2" d="M163.8,227.9c0.4,0.1,0.8,0.3,1.2,0.4c-1.2,0.6-2.4,1.1-3.7,1.7c0.2-0.3,0.3-0.7,0.5-1     c0.1,0.1,0.3,0.1,0.6,0c-0.7-0.6,0.1-1.6,1-1.3c-0.1,0-0.2,0-0.3,0.1c-0.3,0.1-0.4,0.4-0.3,0.6c0.1,0.2,0.4,0.3,0.6,0.2     C163.8,228.3,163.9,228.1,163.8,227.9z"></path>			</g>		</g>	</g></g></svg>